<svg width="194" height="173" viewBox="0 0 194 173" fill="none" xmlns="http://www.w3.org/2000/svg">
<path d="M50.2272 59.4703H98.7804C100.873 59.4703 102.547 57.7613 102.547 55.6251C102.547 53.489 100.873 51.78 98.7804 51.78H50.2272C48.1343 51.78 46.4601 53.489 46.4601 55.6251C46.4601 57.7613 48.1343 59.4703 50.2272 59.4703Z" fill="#2D9964"/>
<path d="M113.849 59.4703H126.406C128.499 59.4703 130.173 57.7613 130.173 55.6251C130.173 53.489 128.499 51.78 126.406 51.78H113.849C111.756 51.78 110.082 53.489 110.082 55.6251C110.082 57.7613 111.756 59.4703 113.849 59.4703Z" fill="#2D9964"/>
<path d="M50.2272 89.8047H98.7804C100.873 89.8047 102.547 88.0958 102.547 85.9596C102.547 83.8234 100.873 82.1145 98.7804 82.1145H50.2272C48.1343 82.1145 46.4601 83.8234 46.4601 85.9596C46.4601 88.0958 48.1343 89.8047 50.2272 89.8047Z" fill="#2D9964"/>
<path d="M113.849 89.8047H126.406C128.499 89.8047 130.173 88.0958 130.173 85.9596C130.173 83.8234 128.499 82.1145 126.406 82.1145H113.849C111.756 82.1145 110.082 83.8234 110.082 85.9596C110.082 88.0958 111.756 89.8047 113.849 89.8047Z" fill="#2D9964"/>
<path d="M102.547 116.292C102.547 114.156 100.873 112.447 98.7804 112.447H50.2272C48.1343 112.447 46.4601 114.156 46.4601 116.292C46.4601 118.428 48.1343 120.137 50.2272 120.137H98.7804C100.873 119.71 102.547 118.001 102.547 116.292Z" fill="#2D9964"/>
<path d="M113.849 119.711H126.406C128.499 119.711 130.173 118.002 130.173 115.866C130.173 113.729 128.499 112.021 126.406 112.021H113.849C111.756 112.021 110.082 113.729 110.082 115.866C110.082 118.002 111.756 119.711 113.849 119.711Z" fill="#2D9964"/>
<path d="M141.474 61.6068C141.056 61.6068 140.637 61.6068 140.219 61.1796C138.963 60.7523 138.126 59.8979 137.707 58.6162L135.615 51.3531C134.777 49.2169 136.033 46.6535 138.545 46.2263C140.637 45.3718 143.149 46.6535 143.567 49.2169L143.986 51.3531L173.285 31.273C175.378 29.9912 177.889 30.4185 179.145 32.5547C180.401 34.6909 179.982 37.2543 177.889 38.536L143.986 62.034C143.149 61.6068 142.312 61.6068 141.474 61.6068Z" fill="#2D9964"/>
<path d="M141.474 94.0767C141.056 94.0767 140.637 94.0768 140.219 93.6495C138.963 93.2223 138.126 92.3678 137.707 91.0861L135.615 83.8231C134.777 81.6869 136.033 79.1235 138.545 78.6962C140.637 77.8418 143.149 79.1235 143.567 81.6869L143.986 83.8231L173.285 63.7429C175.378 62.4612 177.889 62.8885 179.145 65.0247C180.401 67.1608 179.982 69.7242 177.889 71.006L143.986 94.504C143.149 93.6495 142.312 94.0767 141.474 94.0767Z" fill="#2D9964"/>
<path d="M141.474 126.12C141.056 126.12 140.637 126.12 140.219 125.693C138.963 125.266 138.126 124.412 137.707 123.13L135.615 115.867C134.777 113.731 136.033 111.167 138.545 110.74C140.637 109.885 143.149 111.167 143.567 113.731L143.986 115.867L173.285 95.7866C175.378 94.5049 177.889 94.9322 179.145 97.0684C180.401 99.2045 179.982 101.768 177.889 103.05L143.986 126.548C143.149 125.693 142.312 126.12 141.474 126.12Z" fill="#2D9964"/>
<path d="M189.609 172.261H4.60418C2.51137 172.261 0.837112 170.552 0.837112 168.416V150.045C0.837112 147.909 2.51137 146.2 4.60418 146.2H15.9054C17.161 146.2 18.8353 147.054 19.2539 148.336C20.091 150.9 22.1838 152.181 24.6952 152.181C28.0437 152.181 30.5551 149.618 30.5551 146.2C30.5551 142.782 28.0437 140.219 24.6952 140.219C23.021 140.219 21.7653 141.073 20.9281 141.5C20.091 141.928 19.6724 142.355 18.8353 142.355H5.02274C2.92993 142.355 1.25567 140.646 1.25567 138.51V113.73C1.25567 111.594 2.92993 109.885 5.02274 109.885H15.0682C16.3239 109.885 17.1611 110.312 17.5796 111.166C17.9982 112.021 18.4168 112.875 18.4168 114.157C18.4168 114.584 18.4168 115.012 18.4168 115.012C18.4168 118.429 20.9281 120.993 24.2766 120.993C27.6251 120.993 30.1365 118.429 30.1365 115.012C30.1365 111.594 27.6251 109.03 24.2766 109.03C22.1838 109.03 20.5096 107.321 20.5096 105.185V94.0769C20.5096 91.9407 22.1838 90.2318 24.2766 90.2318C27.6251 90.2318 30.1365 87.6684 30.1365 84.2505C30.1365 80.8326 27.6251 78.2691 24.2766 78.2691C20.9281 78.2691 18.4168 80.8326 18.4168 84.2505C18.4168 84.6777 18.4168 85.1049 18.4168 85.5322C18.8353 86.8139 18.4167 87.6684 17.5796 88.5229C16.7425 89.3773 15.9054 89.8045 14.6497 89.8045H3.76707C1.67426 89.8045 0 88.0956 0 85.9594V20.5921C0 18.4559 1.67426 16.747 3.76707 16.747H15.0682C16.3239 16.747 17.161 17.1742 17.9982 18.0287C18.8353 18.8832 18.8353 20.1649 18.8353 21.0194C18.8353 21.4466 18.8353 21.8738 18.8353 22.3011C18.8353 25.719 21.3467 28.2824 24.6952 28.2824C28.0437 28.2824 30.5551 25.719 30.5551 22.3011C30.5551 18.8832 28.0437 16.3197 24.6952 16.3197C22.6024 16.3197 20.9281 14.6108 20.9281 12.4746V4.78432C20.9281 2.64813 22.6024 0.939209 24.6952 0.939209H189.609C191.702 0.939209 193.376 2.64813 193.376 4.78432V168.843C193.376 170.552 191.702 172.261 189.609 172.261ZM7.9527 164.998H185.842V8.20223H28.0437V11.6201C33.485 13.3291 37.6706 18.4559 37.6706 24.4373C37.6706 31.7003 31.8108 37.6816 24.6952 37.6816C17.9982 37.6816 12.5569 32.5547 11.7197 26.1462H8.37125V84.2505H11.7197C12.5569 77.4147 17.9982 72.2878 24.6952 72.2878C31.8108 72.2878 37.6706 78.2691 37.6706 85.5322C37.6706 91.5135 33.485 96.6403 28.0437 98.3493V103.049C33.485 104.758 37.6706 109.885 37.6706 115.866C37.6706 123.129 31.8108 129.11 24.6952 129.11C17.9982 129.11 12.5569 123.984 11.7197 117.575H8.37125V135.092H17.5796C19.6724 133.81 22.1838 132.956 24.6952 132.956C31.8108 132.956 37.6706 138.937 37.6706 146.2C37.6706 153.463 31.8108 159.444 24.6952 159.444C20.091 159.444 15.9054 156.881 13.8125 153.463H8.37125V164.998H7.9527ZM24.6952 68.4427C17.5796 68.4427 11.7197 62.4614 11.7197 55.1983C11.7197 47.9353 17.5796 41.954 24.6952 41.954C31.8108 41.954 37.6706 47.9353 37.6706 55.1983C37.6706 62.4614 31.8108 68.4427 24.6952 68.4427ZM24.6952 49.217C21.3467 49.217 18.8353 51.7804 18.8353 55.1983C18.8353 58.6162 21.3467 61.1796 24.6952 61.1796C28.0437 61.1796 30.5551 58.6162 30.5551 55.1983C30.5551 51.7804 28.0437 49.217 24.6952 49.217Z" fill="#2D9964"/>
</svg>
