<svg width="161" height="187" viewBox="0 0 161 187" fill="none" xmlns="http://www.w3.org/2000/svg">
<path d="M35.0673 27.4213C34.8639 26.7293 33.8061 26.7293 33.3179 27.2585C32.8704 27.7877 32.8297 28.5612 32.8297 29.294C32.8297 31.126 32.8704 32.9579 32.8704 34.8306C32.8704 36.0926 32.8704 37.3954 33.0738 38.6574C33.1552 39.2273 33.3179 39.8787 33.8061 40.2451C34.2537 40.6115 35.108 40.5301 35.3114 40.0008" stroke="#2D9964" stroke-width="4.5354" stroke-miterlimit="10" stroke-linecap="round" stroke-linejoin="round"/>
<path d="M70.5438 37.7221L71.9271 37.5186" stroke="#2D9964" stroke-width="4.5354" stroke-miterlimit="10" stroke-linecap="round" stroke-linejoin="round"/>
<path d="M59.3557 38.7393C59.1929 38.9835 59.2743 39.3499 59.437 39.5942C59.5998 39.8384 59.8846 40.0013 60.1694 40.1641C60.9017 40.5712 61.634 40.9783 62.407 41.2226C63.2207 41.4669 64.075 41.4668 64.848 41.1819C64.7667 41.1004 64.6853 41.0597 64.6039 40.9783" stroke="#2D9964" stroke-width="4.5354" stroke-miterlimit="10" stroke-linecap="round" stroke-linejoin="round"/>
<path d="M42.9192 33.8135C42.7972 34.0984 42.8786 34.3834 43.0413 34.6277C43.204 34.8719 43.4074 35.0755 43.6516 35.2383C44.3839 35.8083 45.2382 36.2968 46.1333 36.6225C46.6622 36.826 47.3131 36.9482 47.72 36.5818" stroke="#2D9964" stroke-width="4.5354" stroke-miterlimit="10" stroke-linecap="round" stroke-linejoin="round"/>
<path d="M49.3475 28.7245C48.4931 28.1138 47.4353 27.8288 46.4182 27.8695" stroke="#2D9964" stroke-width="4.5354" stroke-miterlimit="10" stroke-linecap="round" stroke-linejoin="round"/>
<path d="M64.848 32.022C65.2955 32.1034 65.7024 32.3069 66.0278 32.5919" stroke="#2D9964" stroke-width="4.5354" stroke-miterlimit="10" stroke-linecap="round" stroke-linejoin="round"/>
<path d="M48.8999 45.2529C49.4695 45.8635 50.1611 46.4335 50.8934 46.8813C51.585 47.2884 52.3581 47.6141 53.1717 47.6955C53.9854 47.7769 54.8398 47.5326 55.4094 46.9627C55.9789 46.3928 56.1823 45.4157 55.7755 44.7236" stroke="#2D9964" stroke-width="4.5354" stroke-miterlimit="10" stroke-linecap="round" stroke-linejoin="round"/>
<path d="M43.0007 46.6777C44.2619 49.1611 46.6216 51.0338 49.3474 51.7258C52.0326 52.4179 55.0432 51.8887 57.3215 50.301" stroke="#2D9964" stroke-width="4.5354" stroke-miterlimit="10" stroke-linecap="round" stroke-linejoin="round"/>
<path d="M41.2106 46.7997C42.0649 46.5554 42.8379 46.0669 43.4482 45.4155" stroke="#2D9964" stroke-width="4.5354" stroke-miterlimit="10" stroke-linecap="round" stroke-linejoin="round"/>
<path d="M46.8657 54.0469C47.2319 54.3318 47.6794 54.4947 48.1676 54.4947" stroke="#2D9964" stroke-width="4.5354" stroke-miterlimit="10" stroke-linecap="round" stroke-linejoin="round"/>
<path d="M35.7589 38.7803C34.7011 41.3857 34.9045 44.2762 35.3114 47.0445C35.7589 49.8128 36.4505 52.5404 36.3691 55.3494C36.2878 58.1584 35.3114 61.0895 33.0737 62.7587" stroke="#2D9964" stroke-width="4.5354" stroke-miterlimit="10" stroke-linecap="round" stroke-linejoin="round"/>
<path d="M45.4824 62.0661C48.5744 63.2874 52.1546 62.921 55.1246 61.4555C58.0945 59.9899 60.4949 57.5066 62.3257 54.7383C64.1564 51.97 68.6317 40.8967 69.8115 37.8027" stroke="#2D9964" stroke-width="4.5354" stroke-miterlimit="10" stroke-linecap="round" stroke-linejoin="round"/>
<path d="M36.6946 27.8289C36.2064 26.974 35.7182 26.1191 35.23 25.2642C35.5555 25.2234 35.8402 25.1827 36.1657 25.142C35.8809 24.7349 35.5555 24.2871 35.2707 23.88C35.6368 23.9207 36.003 23.8393 36.3284 23.6357" stroke="#2D9964" stroke-width="4.5354" stroke-miterlimit="10" stroke-linecap="round" stroke-linejoin="round"/>
<path d="M38.3625 27.6659C39.8272 25.7525 40.7629 23.4728 41.6173 21.2337C41.8614 20.623 42.0648 20.0124 42.431 19.4831C42.7971 18.9539 43.326 18.5061 43.977 18.3433" stroke="#2D9964" stroke-width="4.5354" stroke-miterlimit="10" stroke-linecap="round" stroke-linejoin="round"/>
<path d="M68.7945 16.4303C69.0792 17.9773 68.1435 19.6057 66.801 20.4199C65.4584 21.2341 63.7496 21.3155 62.2037 21.0305C60.6577 20.7456 59.193 20.1349 57.7284 19.5243C54.8398 18.3844 51.7885 17.4073 48.6965 17.1631C45.5638 16.9188 42.3091 17.4887 39.7053 19.1986C40.1122 17.3666 41.17 15.6975 42.5532 14.3947C43.8958 13.092 45.5638 12.0743 47.2319 11.2601C50.4052 9.67236 53.9041 8.57318 57.4843 8.61389C61.0645 8.6546 64.6854 9.91662 67.1264 12.4814C68.3469 13.7434 69.2827 15.5346 68.7945 17.2445" stroke="#2D9964" stroke-width="4.5354" stroke-miterlimit="10" stroke-linecap="round" stroke-linejoin="round"/>
<path d="M68.062 20.501C69.4046 21.763 70.1369 23.5135 70.5031 25.2641C70.8692 27.0146 70.8692 28.8873 70.8692 30.7193C70.8692 31.2078 70.8692 31.6963 70.6658 32.1441C70.4624 32.6734 70.0555 33.0398 69.7707 33.5283C69.486 34.0168 69.3232 34.6682 69.6894 35.0753" stroke="#2D9964" stroke-width="4.5354" stroke-miterlimit="10" stroke-linecap="round" stroke-linejoin="round"/>
<path d="M71.5202 36.8259C73.3917 34.424 74.5308 31.4115 74.6935 28.3582C74.8563 25.3049 74.0833 22.1702 72.4966 19.5647C71.8457 18.4656 70.9506 17.4071 69.7301 17" stroke="#2D9964" stroke-width="4.5354" stroke-miterlimit="10" stroke-linecap="round" stroke-linejoin="round"/>
<path d="M35.1079 23.3105C36.8166 20.8678 38.5254 18.3845 40.2341 15.9419" stroke="#2D9964" stroke-width="4.5354" stroke-miterlimit="10" stroke-linecap="round" stroke-linejoin="round"/>
<path d="M34.9858 54.0869C32.8703 54.4533 31.4056 56.6517 31.2836 58.7686C31.1615 60.6006 31.7718 62.4325 32.7075 64.0202C33.6432 65.608 34.9045 66.9921 36.1657 68.2948C38.7288 70.9817 41.4953 73.6279 44.9534 75.012C44.6686 74.7271 44.3432 74.4421 44.0584 74.1571" stroke="#2D9964" stroke-width="4.5354" stroke-miterlimit="10" stroke-linecap="round" stroke-linejoin="round"/>
<path d="M40.4783 79.8566C41.7802 78.5946 43.0414 77.2512 44.2212 75.9077" stroke="#2D9964" stroke-width="4.5354" stroke-miterlimit="10" stroke-linecap="round" stroke-linejoin="round"/>
<path d="M31.6905 55.5933C30.0632 59.8678 27.7849 63.8982 26.1168 68.132" stroke="#2D9964" stroke-width="4.5354" stroke-miterlimit="10" stroke-linecap="round" stroke-linejoin="round"/>
<path d="M24.8963 70.168C19.4446 73.8319 14.0743 77.6587 8.8667 81.689L9.23287 82.3811" stroke="#2D9964" stroke-width="4.5354" stroke-miterlimit="10" stroke-linecap="round" stroke-linejoin="round"/>
<path d="M8.7853 81.811C7.11725 83.1952 5.4492 84.62 3.98457 86.167C3.61841 86.5741 3.21158 86.9812 3.13021 87.5512C3.00816 88.0804 3.29294 88.7318 3.82183 88.8539" stroke="#2D9964" stroke-width="4.5354" stroke-miterlimit="10" stroke-linecap="round" stroke-linejoin="round"/>
<path d="M4.87964 89.3013C15.6609 91.1739 25.6285 97.4434 32.016 106.359" stroke="#2D9964" stroke-width="4.5354" stroke-miterlimit="10" stroke-linecap="round" stroke-linejoin="round"/>
<path d="M4.22871 89.8716C2.31655 108.069 2.64203 126.511 5.16445 144.627C5.85608 149.675 6.83249 154.886 9.59901 159.201C12.569 163.72 17.3697 166.773 22.4552 168.524C27.5814 170.275 32.9924 170.804 38.3627 171.17C42.7159 171.455 47.0691 171.618 51.4223 171.537C55.328 171.455 59.4371 171.007 62.6511 168.768C65.8245 166.488 67.6146 161.807 65.4583 158.509" stroke="#2D9964" stroke-width="4.5354" stroke-miterlimit="10" stroke-linecap="round" stroke-linejoin="round"/>
<path d="M62.4476 166.814C60.8202 166.488 60.2506 164.453 60.0065 162.824C59.4776 158.672 59.1522 154.438 59.7624 150.286C60.3727 146.133 62.0001 142.021 64.8886 139.009" stroke="#2D9964" stroke-width="4.5354" stroke-miterlimit="10" stroke-linecap="round" stroke-linejoin="round"/>
<path d="M60.2101 158.224C62.2443 157.817 64.2378 157.41 66.272 157.003C65.0515 150.733 64.6853 144.301 65.2142 137.91" stroke="#2D9964" stroke-width="4.5354" stroke-miterlimit="10" stroke-linecap="round" stroke-linejoin="round"/>
<path d="M62.3256 154.397C62.9765 154.112 63.8309 154.682 63.8309 155.415C63.7902 156.148 62.8951 156.636 62.2442 156.31C61.6339 155.944 61.5932 154.926 62.1628 154.519" stroke="#2D9964" stroke-width="4.5354" stroke-miterlimit="10" stroke-linecap="round" stroke-linejoin="round"/>
<path d="M65.2957 137.788C60.9425 140.067 55.7756 139.986 50.9342 139.213C46.0928 138.439 41.3327 137.014 36.4506 136.811C31.5685 136.566 26.2796 137.747 22.9435 141.329" stroke="#2D9964" stroke-width="4.5354" stroke-miterlimit="10" stroke-linecap="round" stroke-linejoin="round"/>
<path d="M26.6864 137.095C25.832 136.403 24.5301 136.485 23.5537 136.933C22.5366 137.421 21.7636 138.195 20.9499 138.968C20.1362 139.742 19.2819 140.515 18.2648 140.841" stroke="#2D9964" stroke-width="4.5354" stroke-miterlimit="10" stroke-linecap="round" stroke-linejoin="round"/>
<path d="M30.3886 135.223C30.6327 130.826 30.47 126.43 29.9004 122.074" stroke="#2D9964" stroke-width="4.5354" stroke-miterlimit="10" stroke-linecap="round" stroke-linejoin="round"/>
<path d="M17.6139 134.734C20.5431 129.646 24.2454 125.045 28.5986 121.137C30.348 115.682 29.8598 109.535 27.3374 104.405" stroke="#2D9964" stroke-width="4.5354" stroke-miterlimit="10" stroke-linecap="round" stroke-linejoin="round"/>
<path d="M27.9476 113.158C24.8556 114.786 22.0078 116.984 19.6481 119.59" stroke="#2D9964" stroke-width="4.5354" stroke-miterlimit="10" stroke-linecap="round" stroke-linejoin="round"/>
<path d="M27.907 64.9976C28.5172 69.0279 31.4872 72.244 34.4978 74.9716C37.5084 77.6992 40.8445 80.2639 42.6753 83.9279" stroke="#2D9964" stroke-width="4.5354" stroke-miterlimit="10" stroke-linecap="round" stroke-linejoin="round"/>
<path d="M24.2452 71.3481C24.8148 77.3733 29.4121 81.4443 29.9817 87.4694C33.3585 85.841 37.2235 85.3525 40.9257 86.0039" stroke="#2D9964" stroke-width="4.5354" stroke-miterlimit="10" stroke-linecap="round" stroke-linejoin="round"/>
<path d="M65.1735 139.212C68.3468 138.398 70.6658 135.792 72.8627 133.39C76.8905 129.075 81.2437 125.086 85.8817 121.462C86.3699 121.055 86.9395 120.648 87.5904 120.607C88.8109 120.526 89.706 121.91 89.6246 123.131C89.5432 124.353 88.8109 125.411 88.0786 126.388C86.1258 129.034 84.2136 131.721 82.2608 134.368" stroke="#2D9964" stroke-width="4.5354" stroke-miterlimit="10" stroke-linecap="round" stroke-linejoin="round"/>
<path d="M82.5051 135.182C90.2757 135.752 98.0464 136.281 105.817 136.851C106.631 136.892 107.485 136.973 108.217 137.38C108.95 137.788 109.519 138.561 109.397 139.375C109.194 140.637 107.648 141.085 106.346 141.289C101.952 141.899 97.5582 142.51 93.1236 143.121C98.4533 143.691 103.783 144.22 109.112 144.79C110.292 144.912 111.716 145.238 112.042 146.337C112.327 147.232 111.635 148.209 110.781 148.617C109.926 149.024 108.95 148.983 108.014 148.942C102.969 148.739 97.965 148.535 92.9202 148.332C96.4597 150.041 100.365 150.937 104.312 150.937C105.451 150.937 106.631 150.896 107.689 151.263C108.746 151.67 109.723 152.647 109.641 153.787C109.56 154.845 108.624 155.659 107.566 155.944C106.549 156.229 105.451 156.067 104.393 155.904C99.6738 155.171 94.9544 154.438 90.1944 153.705C93.7746 155.7 97.3548 157.736 100.935 159.73C101.423 160.015 101.952 160.341 102.074 160.87C102.278 161.603 101.545 162.336 100.772 162.458C99.9992 162.58 99.2669 162.255 98.5753 161.97C88.4043 157.654 77.4196 155.334 66.3942 155.171" stroke="#2D9964" stroke-width="4.5354" stroke-miterlimit="10" stroke-linecap="round" stroke-linejoin="round"/>
<path d="M128.193 91.0117C130.756 93.4951 131.733 97.4847 130.593 100.864C129.414 104.243 126.159 106.807 122.619 107.133" stroke="#2D9964" stroke-width="4.5354" stroke-miterlimit="10" stroke-linecap="round" stroke-linejoin="round"/>
<path d="M122.904 107.255C124.816 109.29 127.827 110.308 130.553 109.779C133.319 109.29 135.76 107.336 136.859 104.73" stroke="#2D9964" stroke-width="4.5354" stroke-miterlimit="10" stroke-linecap="round" stroke-linejoin="round"/>
<path d="M127.664 90.604C131 92.9245 133.604 96.2627 135.069 100.008C135.923 102.206 136.411 104.608 135.964 106.888C135.516 109.209 134.011 111.366 131.814 112.18C129.536 113.035 126.932 112.303 124.979 110.959C122.986 109.575 121.521 107.621 120.056 105.708" stroke="#2D9964" stroke-width="4.5354" stroke-miterlimit="10" stroke-linecap="round" stroke-linejoin="round"/>
<path d="M119.772 106.156C122.823 112.059 125.834 118.002 128.885 123.905" stroke="#2D9964" stroke-width="4.5354" stroke-miterlimit="10" stroke-linecap="round" stroke-linejoin="round"/>
<path d="M127.135 90.9302C133.686 91.9072 140.114 94.4313 144.874 99.0722C149.634 103.673 152.441 110.471 151.383 117.026C150.976 119.55 149.634 122.318 147.152 122.929C146.176 123.173 145.118 123.051 144.182 123.417C143.043 123.906 142.351 125.005 141.416 125.778C139.585 127.244 136.9 127.244 134.703 126.389C132.506 125.534 130.716 123.946 128.926 122.359" stroke="#2D9964" stroke-width="4.5354" stroke-miterlimit="10" stroke-linecap="round" stroke-linejoin="round"/>
<path d="M126.769 90.5636C124.003 89.1794 121.562 87.0625 119.853 84.457C118.836 82.9508 118.063 81.2816 116.883 79.9382C115.663 78.554 114.035 77.6177 112.449 76.6814C109.763 75.0937 107.038 73.5467 104.352 71.959C103.539 71.4704 102.44 71.0226 101.708 71.5926C100.691 72.4068 101.545 73.9945 102.4 74.9308C104.8 77.6177 107.16 80.3046 109.56 82.9915" stroke="#2D9964" stroke-width="4.5354" stroke-miterlimit="10" stroke-linecap="round" stroke-linejoin="round"/>
<path d="M109.519 82.3403C108.055 84.4166 105.044 84.4573 102.481 84.2537C96.9071 83.8873 91.3334 83.4802 85.7596 83.1138C84.8239 83.0324 83.4813 83.3581 83.6034 84.2944C83.6847 84.9051 84.3764 85.19 84.946 85.3529C88.9737 86.5335 93.0421 87.7141 97.0698 88.8947C92.7166 88.7726 88.3634 88.6504 84.0102 88.5283C82.9118 88.4876 81.7726 88.4876 80.8775 89.0575C79.9418 89.6275 79.4536 91.0116 80.1859 91.8258C80.5927 92.3144 81.2844 92.4365 81.8946 92.5179C87.3056 93.4135 92.7166 94.3092 98.0869 95.2048C93.6524 95.2048 89.2178 95.2048 84.7832 95.2048C83.3593 95.2048 81.4064 95.734 81.5285 97.1589C81.6506 98.3395 83.1559 98.7059 84.3357 98.828C89.6246 99.2758 94.9136 99.6829 100.202 100.131C96.5002 100.864 92.8387 101.637 89.1364 102.37C88.4855 102.492 87.7939 102.696 87.4277 103.225C86.8581 104.12 87.7939 105.342 88.8516 105.545C89.9094 105.749 90.9672 105.301 91.9843 105.016C99.6329 102.777 107.932 107.988 115.662 105.993C116.72 105.708 117.737 105.342 118.836 105.301C119.934 105.26 121.114 105.708 121.602 106.685" stroke="#2D9964" stroke-width="4.5354" stroke-miterlimit="10" stroke-linecap="round" stroke-linejoin="round"/>
<path d="M29.8191 118.613C33.9689 109.86 32.5042 99.0311 37.5898 90.7669C39.7867 87.1844 43.0414 84.4161 46.2148 81.6885C48.2897 79.8973 50.3646 78.1467 52.4395 76.3555" stroke="#2D9964" stroke-width="4.5354" stroke-miterlimit="10" stroke-linecap="round" stroke-linejoin="round"/>
<path d="M43.1228 82.4625C44.7502 74.1983 49.5509 66.5448 56.3451 61.5781" stroke="#2D9964" stroke-width="4.5354" stroke-miterlimit="10" stroke-linecap="round" stroke-linejoin="round"/>
<path d="M72.985 36.3371C76.8907 34.1795 80.8777 32.0625 85.1495 30.7598C89.4214 29.4978 94.1 29.1314 98.3312 30.5969C102.359 31.9811 105.654 34.953 108.217 38.3319" stroke="#2D9964" stroke-width="4.5354" stroke-miterlimit="10" stroke-linecap="round" stroke-linejoin="round"/>
<path d="M108.299 35.7269C109.682 38.2509 111.35 40.6935 113.669 42.4441C115.947 44.1946 118.917 45.2531 121.765 44.7646C122.457 44.6424 123.189 44.3981 123.718 43.9096C124.206 43.3804 124.41 42.5255 124.003 41.9555C123.515 41.2635 122.497 41.2634 121.643 41.182C118.307 40.8563 115.663 38.2916 113.628 35.6454C113.14 34.9941 112.693 34.3427 112.001 33.8949C111.35 33.4471 110.455 33.2028 109.723 33.5285C108.99 33.8542 108.583 34.8719 109.072 35.5233" stroke="#2D9964" stroke-width="4.5354" stroke-miterlimit="10" stroke-linecap="round" stroke-linejoin="round"/>
<path d="M113.14 35.7266C112.204 37.2736 112.042 39.2277 112.733 40.8968" stroke="#2D9964" stroke-width="4.5354" stroke-miterlimit="10" stroke-linecap="round" stroke-linejoin="round"/>
<path d="M115.785 38.251C114.89 40.2051 114.808 42.5256 115.54 44.5611C115.663 44.9682 115.866 45.3346 116.232 45.5789C116.598 45.7824 117.168 45.701 117.29 45.2939" stroke="#2D9964" stroke-width="4.5354" stroke-miterlimit="10" stroke-linecap="round" stroke-linejoin="round"/>
<path d="M119.894 41.3853C119.324 42.4437 119.487 43.8279 120.26 44.7235" stroke="#2D9964" stroke-width="4.5354" stroke-miterlimit="10" stroke-linecap="round" stroke-linejoin="round"/>
<path d="M110.496 33.1622C112.408 24.1652 104.108 15.3718 105.898 6.37479C106.102 5.31632 106.468 4.25786 107.322 3.56578C108.136 2.87371 109.519 2.75157 110.211 3.56578C111.025 4.46141 110.699 6.0084 111.594 6.82261C112.326 7.51469 113.506 7.27041 114.442 6.86331C115.337 6.45621 116.232 5.84555 117.249 5.88626C118.266 5.92697 119.243 7.02615 118.714 7.88107C122.253 8.24746 125.793 9.02096 129.17 10.2016C130.716 10.7308 132.384 11.5857 132.75 13.1734C133.197 15.0868 131.407 16.7559 129.821 17.9365C126.281 20.542 122.742 23.1882 119.202 25.7936" stroke="#2D9964" stroke-width="4.5354" stroke-miterlimit="10" stroke-linecap="round" stroke-linejoin="round"/>
<path d="M119.161 26.6074C118.551 27.2995 117.9 28.073 117.86 29.0093C117.778 29.9457 118.632 30.9634 119.528 30.7192C120.178 30.5156 120.504 29.7828 120.748 29.1315C121.236 27.7473 121.725 26.3632 122.213 24.979" stroke="#2D9964" stroke-width="4.5354" stroke-miterlimit="10" stroke-linecap="round" stroke-linejoin="round"/>
<path d="M128.275 9.63106C130.919 6.78133 134.987 5.31575 138.852 5.8857C142.717 6.41493 146.216 8.93898 148.006 12.4401C146.949 12.4401 146.013 13.3357 145.647 14.3535C145.281 15.3712 145.362 16.4704 145.403 17.5289C145.484 18.5873 145.525 19.6458 145.606 20.7043C145.687 21.7627 145.728 22.9026 145.321 23.839C144.385 25.9152 141.741 26.4851 139.544 27.0551C132.546 28.887 126.444 33.9351 123.352 40.4895" stroke="#2D9964" stroke-width="4.5354" stroke-miterlimit="10" stroke-linecap="round" stroke-linejoin="round"/>
<path d="M140.52 18.4661C132.953 19.9317 126.2 25.3055 123.108 32.3891C128.925 27.6667 134.703 22.9036 140.52 18.1812" stroke="#2D9964" stroke-width="4.5354" stroke-miterlimit="10" stroke-linecap="round" stroke-linejoin="round"/>
<path d="M124.328 43.0542C125.549 45.049 127.705 46.2703 129.943 46.9624C132.18 47.6137 134.54 47.8173 136.818 48.2244C143.124 49.3643 149.186 52.4583 153.255 57.3842C157.323 62.3509 159.113 69.2717 157.282 75.3782C155.899 79.8971 152.726 83.7238 148.983 86.6143C145.24 89.5047 140.927 91.5809 136.656 93.5757" stroke="#2D9964" stroke-width="4.5354" stroke-miterlimit="10" stroke-linecap="round" stroke-linejoin="round"/>
<path d="M128.6 124.109C130.838 127.691 130.878 132.251 130.105 136.363C129.332 140.515 127.787 144.505 127.095 148.657C126.2 154.072 126.688 159.69 125.223 164.982C122.986 172.961 115.907 179.353 107.729 180.778C102.725 181.633 97.5175 180.778 92.6354 179.353C87.7533 177.928 82.9933 176.015 78.0705 174.712C72.212 173.165 66.1501 172.554 60.0881 172.839" stroke="#2D9964" stroke-width="4.5354" stroke-miterlimit="10" stroke-linecap="round" stroke-linejoin="round"/>
<path d="M60.3728 173.491C48.2083 174.508 36.4099 178.172 24.937 182.243C21.2347 183.546 16.8815 184.89 13.5861 182.691C11.1044 181.063 10.0872 177.806 10.2907 174.875C10.4941 171.903 11.7553 169.135 12.9758 166.448" stroke="#2D9964" stroke-width="4.5354" stroke-miterlimit="10" stroke-linecap="round" stroke-linejoin="round"/>
<path d="M100.487 105.423C99.0227 114.379 91.5368 122.155 81.6099 121.096C78.3959 121.381 77.867 124.312 77.3381 127.284C74.6529 127.284 72.2526 126.47 70.0556 125.778M70.0556 125.778C70.6252 124.394 72.0898 126.266 70.0556 125.778ZM70.0556 125.778C70.91 123.783 70.3811 121.381 71.4389 119.508C67.6959 117.351 63.6682 116.048 61.2678 112.547C57.5249 106.4 59.1116 98.8682 60.7797 92.3138M60.7797 92.3138C60.1287 94.5936 65.3363 93.3316 60.7797 92.3138ZM60.7797 92.3138C66.3534 93.2501 71.4389 95.3671 77.0533 95.8963C76.8092 100.741 70.6252 108.517 77.867 110.918C83.4814 107.417 83.4814 99.3974 79.7384 94.5529C75.7107 89.1791 69.8115 85.4338 67.4112 79.2865C66.3534 75.7854 65.7838 72.0401 65.7838 68.0097C66.8416 60.7633 71.1134 54.616 78.64 53.5168C81.3251 53.5168 84.2544 55.3895 86.6954 53.5168C87.5091 52.4584 87.7532 50.3007 88.038 48.7944M88.038 48.7944C87.8753 49.975 89.2585 49.1608 88.038 48.7944ZM88.038 48.7944C90.4384 48.9573 92.5946 49.2423 94.4661 50.3007C95.8087 51.6442 94.7509 53.5168 94.222 55.1453L94.7509 56.2037C101.993 58.6056 107.892 65.0379 106.02 72.4064" stroke="#2D9964" stroke-width="4.5354" stroke-linecap="round" stroke-linejoin="round"/>
<path d="M104.515 78.5132L88.2821 74.7271C88.8924 72.1624 91.0079 67.3586 88.6483 65.323C85.719 62.8397 83.6441 65.8523 83.1966 68.7427C82.2609 75.0935 88.5262 79.6123 92.676 83.317" stroke="#2D9964" stroke-width="4.5354" stroke-linecap="round" stroke-linejoin="round"/>
</svg>
