<svg width="194" height="180" viewBox="0 0 194 180" fill="none" xmlns="http://www.w3.org/2000/svg">
<path d="M149.657 147.441C150.627 147.441 151.598 147.495 152.515 147.925C153.054 148.14 153.593 148.302 154.186 148.409C156.828 148.893 157.691 151.045 156.074 153.25C155.534 154.003 154.725 154.272 153.917 154.541C152.784 154.971 152.676 155.24 152.784 156.424C152.838 157.768 152.623 159.167 152.515 160.512" stroke="#2D9964" stroke-width="3.685" stroke-miterlimit="10" stroke-linecap="round" stroke-linejoin="round"/>
<path d="M153.755 141.202C153.647 143.461 153.593 145.774 153.162 148.033" stroke="#2D9964" stroke-width="3.685" stroke-miterlimit="10" stroke-linecap="round" stroke-linejoin="round"/>
<path d="M149.172 143.676C149.765 144.483 149.657 145.451 149.657 146.365C149.657 149.109 149.279 151.798 148.902 154.487C148.848 154.971 148.956 155.456 148.956 155.886" stroke="#2D9964" stroke-width="3.685" stroke-miterlimit="10" stroke-linecap="round" stroke-linejoin="round"/>
<path d="M153.431 148.355C153.377 150.399 153.377 152.443 153.323 154.487" stroke="#2D9964" stroke-width="3.685" stroke-miterlimit="10" stroke-linecap="round" stroke-linejoin="round"/>
<path d="M149.765 137.921C149.495 139.05 149.387 140.18 149.873 141.363C150.142 142.062 149.549 143.299 148.848 143.676C147.554 144.321 146.799 145.343 146.475 146.742" stroke="#2D9964" stroke-width="3.685" stroke-miterlimit="10" stroke-linecap="round" stroke-linejoin="round"/>
<path d="M154.132 137.221C154.078 138.459 154.24 139.749 153.917 141.148C152.515 140.987 151.328 141.524 150.034 141.955" stroke="#2D9964" stroke-width="3.685" stroke-miterlimit="10" stroke-linecap="round" stroke-linejoin="round"/>
<path d="M146.26 146.688C147.176 147.656 148.255 147.602 149.441 147.333" stroke="#2D9964" stroke-width="3.685" stroke-miterlimit="10" stroke-linecap="round" stroke-linejoin="round"/>
<path d="M125.284 120.762C124.529 121.462 124.637 122.376 124.691 123.237C124.853 124.581 126.471 125.281 127.711 124.635C128.088 124.42 128.412 124.151 128.789 123.936" stroke="#2D9964" stroke-width="3.685" stroke-miterlimit="10" stroke-linecap="round" stroke-linejoin="round"/>
<path d="M130.461 124.151C130.569 124.527 130.784 124.85 131.054 125.119C132.618 126.625 134.073 128.293 135.907 129.583" stroke="#2D9964" stroke-width="3.685" stroke-miterlimit="10" stroke-linecap="round" stroke-linejoin="round"/>
<path d="M126.201 117.697C128.304 118.987 129.868 120.762 131.27 122.753C131.431 122.968 131.593 123.183 131.755 123.183C133.426 123.237 134.235 124.581 135.314 125.55C135.745 125.926 136.069 126.356 136.608 126.625C137.363 126.948 137.255 127.486 136.985 128.131C136.662 128.831 135.799 129.207 135.907 130.122" stroke="#2D9964" stroke-width="3.685" stroke-miterlimit="10" stroke-linecap="round" stroke-linejoin="round"/>
<path d="M131.27 123.237C130.137 124.366 129.921 124.312 128.681 123.237C127.711 122.376 126.632 121.569 125.608 120.762C125.5 120.655 125.284 120.601 125.284 120.547C125.122 119.525 124.314 119.203 123.505 118.772C123.235 118.611 123.02 118.342 122.804 118.073" stroke="#2D9964" stroke-width="3.685" stroke-miterlimit="10" stroke-linecap="round" stroke-linejoin="round"/>
<path d="M137.039 126.84C137.363 126.195 137.74 125.657 137.524 124.85C137.255 123.559 135.691 122.484 134.451 122.968C134.181 123.075 133.966 123.29 133.75 123.452" stroke="#2D9964" stroke-width="3.685" stroke-miterlimit="10" stroke-linecap="round" stroke-linejoin="round"/>
<path d="M137.309 127.701C138.495 128.4 139.358 129.315 140.005 130.498" stroke="#2D9964" stroke-width="3.685" stroke-miterlimit="10" stroke-linecap="round" stroke-linejoin="round"/>
<path d="M135.637 130.283C134.721 130.982 133.804 131.627 132.672 131.95" stroke="#2D9964" stroke-width="3.685" stroke-miterlimit="10" stroke-linecap="round" stroke-linejoin="round"/>
<path d="M129.49 116.782C128.358 116.782 127.225 116.621 126.417 117.696" stroke="#2D9964" stroke-width="3.685" stroke-miterlimit="10" stroke-linecap="round" stroke-linejoin="round"/>
<path d="M150.304 100.538C150.412 100.699 150.466 100.968 150.627 100.968C153.27 101.345 155.48 102.797 157.799 103.927C161.466 105.702 165.024 107.746 168.745 109.467C172.196 111.081 175.593 112.856 179.044 114.577C182.819 116.459 186.647 118.181 190.314 120.171C191.931 121.031 192.578 122.752 191.823 124.366C191.554 124.958 191.608 125.496 191.5 126.034C191.122 127.701 191.122 129.476 190.475 131.09C190.26 131.574 190.206 132.112 190.421 132.488C190.853 133.241 190.529 133.94 190.368 134.586C190.206 135.177 189.774 135.5 188.912 135.662C186.27 136.092 183.627 136.415 180.985 136.952C176.51 137.867 172.142 139.212 167.667 140.072C165.995 140.395 164.323 140.933 162.598 141.202" stroke="#2D9964" stroke-width="3.685" stroke-miterlimit="10" stroke-linecap="round" stroke-linejoin="round"/>
<path d="M104.309 151.421C101.451 149.539 99.0244 147.065 96.3283 144.967C94.7107 143.73 93.3087 142.277 91.6371 141.094C89.3185 139.48 87.1617 137.652 84.897 135.93C83.7107 135.07 82.794 133.94 81.8774 132.865C81.1224 131.896 80.1519 131.251 79.1274 130.659C78.3725 130.175 77.6715 129.745 77.4558 128.777C77.3479 128.185 76.7548 127.862 76.1617 127.862C75.5146 127.862 74.9215 128.131 74.4901 128.777C73.7352 129.96 73.196 131.305 73.3577 132.649C73.5195 133.994 72.9264 135.231 72.9264 136.522C72.9264 138.459 72.5489 140.449 72.8724 142.385C72.9803 142.923 72.5489 143.192 72.3872 143.568C72.1715 143.999 72.1715 144.375 72.6028 144.644C74.7597 145.881 76.4852 147.656 78.6421 148.84C81.2842 150.346 83.6568 152.336 86.0832 154.111C89.2107 156.37 92.3921 158.575 95.4656 160.942C97.3528 162.394 99.4558 163.631 101.451 164.976C101.774 165.191 102.152 165.352 102.529 165.46" stroke="#2D9964" stroke-width="3.685" stroke-miterlimit="10" stroke-linecap="round" stroke-linejoin="round"/>
<path d="M136.716 158.952C133.858 160.081 130.946 160.996 127.98 161.802C123.559 162.932 119.137 164.008 114.77 165.245C111.211 166.267 107.544 166.912 104.039 168.042C103.662 168.149 103.284 168.042 102.853 168.042" stroke="#2D9964" stroke-width="3.685" stroke-miterlimit="10" stroke-linecap="round" stroke-linejoin="round"/>
<path d="M138.118 151.099C139.088 152.174 138.926 153.304 138.441 154.487C138.333 154.81 138.172 154.971 137.74 155.079C134.02 156.155 130.407 157.446 126.686 158.521C122.912 159.597 119.083 160.619 115.255 161.48C113.206 161.964 111.157 162.287 109.162 162.824C108.137 163.093 107.167 163.524 106.196 163.954C105.819 164.115 105.279 164.492 104.794 164.008" stroke="#2D9964" stroke-width="3.685" stroke-miterlimit="10" stroke-linecap="round" stroke-linejoin="round"/>
<path d="M137.902 163.308C133.696 164.922 129.274 165.783 124.907 166.643C119.892 167.665 114.931 168.956 109.971 169.978C108.245 170.355 106.573 171 104.794 171.054" stroke="#2D9964" stroke-width="3.685" stroke-miterlimit="10" stroke-linecap="round" stroke-linejoin="round"/>
<path d="M138.441 146.042C136.23 146.311 134.397 147.495 132.294 148.194C128.951 149.27 125.554 150.346 122.265 151.583C118.005 153.196 113.475 154.057 109.162 155.563C108.569 155.778 107.921 155.832 107.274 155.778" stroke="#2D9964" stroke-width="3.685" stroke-miterlimit="10" stroke-linecap="round" stroke-linejoin="round"/>
<path d="M191.716 122.376C190.206 122.43 188.804 122.968 187.348 123.237C182.872 124.097 178.451 125.334 173.921 125.98C169.446 126.625 165.078 127.593 160.711 128.723C160.441 129.153 160.657 129.476 160.819 129.852C161.466 131.143 161.358 132.596 161.519 133.94C161.681 135.231 161.897 136.522 161.951 137.813C162.005 139.05 162.167 140.234 162.167 141.471C162.167 143.031 162.113 144.698 162.328 146.15C162.598 147.764 162.22 149.324 162.544 150.884C162.76 151.798 162.49 152.981 162.328 154.003C162.113 155.724 162.76 157.392 162.274 159.059C162.113 159.651 162.436 160.243 162.49 160.834" stroke="#2D9964" stroke-width="3.685" stroke-miterlimit="10" stroke-linecap="round" stroke-linejoin="round"/>
<path d="M73.0881 142.492C75.4607 143.192 77.4019 144.698 79.343 146.15C82.9019 148.839 86.5685 151.421 90.0734 154.164C93.093 156.531 96.2205 158.629 99.4019 160.727C100.588 161.533 101.936 162.071 103.284 162.609" stroke="#2D9964" stroke-width="3.685" stroke-miterlimit="10" stroke-linecap="round" stroke-linejoin="round"/>
<path d="M137.74 141.578C138.603 140.449 137.956 139.319 137.309 138.566C136.662 137.813 135.421 137.921 134.451 138.405C132.887 139.158 131.27 139.857 129.706 140.556C125.877 142.277 122.049 144.106 118.059 145.451C116.603 145.935 115.093 146.527 113.691 147.226C111.426 148.302 108.946 148.893 106.735 150.13C106.034 150.507 105.333 150.883 104.74 151.421" stroke="#2D9964" stroke-width="3.685" stroke-miterlimit="10" stroke-linecap="round" stroke-linejoin="round"/>
<path d="M191.23 125.227C190.529 124.904 189.936 125.442 189.343 125.603C187.24 126.195 185.083 126.356 182.98 126.84C177.319 128.131 171.603 129.153 165.995 130.606C164.539 130.982 163.029 131.305 161.52 131.305" stroke="#2D9964" stroke-width="3.685" stroke-miterlimit="10" stroke-linecap="round" stroke-linejoin="round"/>
<path d="M162.598 153.896C165.348 154.057 167.936 153.411 170.578 152.927C174.461 152.228 178.343 151.421 182.225 150.561C183.627 150.238 185.029 149.754 186.485 149.754C187.51 149.754 187.671 150.023 187.671 151.045C187.671 152.336 186.917 153.25 186 153.949C184.005 155.509 181.686 156.37 179.314 157.015C175.863 157.983 172.412 159.113 168.907 159.866C166.912 160.296 164.971 161.103 162.814 160.942C161.951 160.888 161.088 161.695 160.118 161.964C156.181 162.932 152.299 164.223 148.471 165.514C145.505 166.482 142.593 167.719 139.627 168.58C137.093 169.279 134.774 170.57 132.24 171.108C129.76 171.646 127.279 172.183 124.799 172.775C121.671 173.528 118.544 174.227 115.363 174.658C114.338 174.819 113.314 175.034 112.289 175.249C111.804 175.357 111.319 175.411 110.779 175.249C109 174.711 107.49 175.841 105.819 176.056C105.172 177.24 103.931 177.347 102.853 177.777C101.882 178.208 101.343 177.885 100.858 176.863C100.804 176.755 100.75 176.594 100.642 176.54C99.4019 175.895 98.647 174.765 98.1078 173.582C96.9215 171 94.6029 169.548 92.6617 167.719C90.397 165.621 88.0784 163.524 85.4901 161.856C83.8186 160.78 82.2009 159.597 80.6372 158.306C79.6666 157.553 78.6421 157.015 77.348 156.693C75.8921 156.316 74.7058 155.133 73.3039 154.433C71.147 153.411 71.5784 151.529 71.6862 149.808C71.7401 149.108 71.6323 148.248 72.3333 147.71" stroke="#2D9964" stroke-width="3.685" stroke-miterlimit="10" stroke-linecap="round" stroke-linejoin="round"/>
<path d="M72.3872 144.59C72.3332 144.859 72.2254 145.128 72.1715 145.397C71.8479 147.011 72.7107 147.925 74.0587 148.732C77.294 150.561 80.044 153.089 82.9019 155.402C86.6764 158.414 90.2352 161.641 93.9558 164.707C95.897 166.321 97.8921 167.88 100.103 169.118" stroke="#2D9964" stroke-width="3.685" stroke-miterlimit="10" stroke-linecap="round" stroke-linejoin="round"/>
<path d="M190.044 131.789C187.348 132.165 184.76 132.811 182.118 133.618C178.99 134.586 175.755 135.07 172.573 135.769C169.931 136.361 167.181 136.737 164.539 137.383C163.73 137.598 163.083 138.19 162.167 138.243" stroke="#2D9964" stroke-width="3.685" stroke-miterlimit="10" stroke-linecap="round" stroke-linejoin="round"/>
<path d="M137.309 167.504C135.044 167.88 132.887 168.633 130.73 169.118C127.118 169.978 123.505 170.731 119.892 171.592C117.034 172.291 114.176 173.044 111.319 173.851C110.833 174.012 110.348 174.335 110.132 174.873" stroke="#2D9964" stroke-width="3.685" stroke-miterlimit="10" stroke-linecap="round" stroke-linejoin="round"/>
<path d="M190.637 128.508C188.319 128.615 186.162 129.368 183.951 129.798C180.823 130.444 177.696 131.143 174.515 131.681C171.603 132.165 168.637 132.542 165.779 133.348C165.132 133.51 164.593 133.94 163.892 133.94" stroke="#2D9964" stroke-width="3.685" stroke-miterlimit="10" stroke-linecap="round" stroke-linejoin="round"/>
<path d="M134.451 135.07C134.02 135.07 133.804 135.446 133.534 135.662C132.833 136.146 131.755 136.199 131.27 135.5C130.73 134.747 130.083 134.048 129.328 133.564C128.304 132.811 127.279 132.434 125.823 132.865C122.966 133.725 120 133.671 117.142 132.596C117.034 132.542 116.926 132.38 116.765 132.38C113.745 132.488 112.882 130.229 112.235 128.024C111.642 126.087 111.966 124.043 112.667 122.161C112.774 121.838 112.613 121.623 112.505 121.462C112.02 120.601 111.265 119.955 110.402 119.579C109.377 119.149 108.245 118.987 107.544 117.912C107.328 117.589 106.789 117.374 106.25 117.643C103.23 119.31 99.8333 119.848 96.598 120.924C91.9607 122.483 87.1617 123.828 82.6862 125.872C81.8774 126.249 80.7989 126.356 80.5833 127.54" stroke="#2D9964" stroke-width="3.685" stroke-miterlimit="10" stroke-linecap="round" stroke-linejoin="round"/>
<path d="M189.613 135.823C190.152 137.652 189.667 138.62 187.941 138.996C185.029 139.642 182.064 140.233 179.098 140.879C175.863 141.632 172.681 142.492 169.446 143.245C167.181 143.783 164.917 144.16 162.598 144.59" stroke="#2D9964" stroke-width="3.685" stroke-miterlimit="10" stroke-linecap="round" stroke-linejoin="round"/>
<path d="M162.868 147.656C166.103 146.957 169.392 146.204 172.627 145.558C174.73 145.128 176.887 144.752 178.99 144.375C181.524 143.945 184.059 143.299 186.539 142.6C187.132 142.439 187.725 142.331 188.319 142.385" stroke="#2D9964" stroke-width="3.685" stroke-miterlimit="10" stroke-linecap="round" stroke-linejoin="round"/>
<path d="M150.358 100.915C149.225 101.13 148.255 101.668 147.284 102.205C144.696 103.765 141.892 104.626 139.034 105.54C135.314 106.724 131.647 107.961 128.196 109.736C127.765 109.951 127.333 110.166 127.118 110.65" stroke="#2D9964" stroke-width="3.685" stroke-miterlimit="10" stroke-linecap="round" stroke-linejoin="round"/>
<path d="M160.495 129.099C156.774 130.713 152.892 131.843 149.064 133.241C145.936 134.371 142.863 135.608 139.735 136.737C138.819 137.06 138.171 137.652 137.524 138.297" stroke="#2D9964" stroke-width="3.685" stroke-miterlimit="10" stroke-linecap="round" stroke-linejoin="round"/>
<path d="M82.5244 139.211C82.4165 139.964 82.8479 140.449 83.3332 140.879C87.7009 144.375 91.7989 148.302 96.0587 151.905C98.1077 153.627 100.157 155.294 102.421 156.746C102.961 157.069 103.5 157.338 104.093 157.446" stroke="#2D9964" stroke-width="3.685" stroke-miterlimit="10" stroke-linecap="round" stroke-linejoin="round"/>
<path d="M187.618 146.473C186.162 146.473 184.76 146.903 183.358 147.172C180.338 147.764 177.319 148.355 174.299 148.947C171.064 149.593 167.828 150.023 164.647 150.937C164.108 151.099 163.461 151.045 162.868 151.045" stroke="#2D9964" stroke-width="3.685" stroke-miterlimit="10" stroke-linecap="round" stroke-linejoin="round"/>
<path d="M185.029 154.272C184.167 153.519 183.088 153.681 182.064 153.842C178.936 154.326 175.809 155.133 172.735 155.94C170.039 156.693 167.343 157.231 164.593 157.768C163.946 157.93 163.407 158.252 162.706 158.145" stroke="#2D9964" stroke-width="3.685" stroke-miterlimit="10" stroke-linecap="round" stroke-linejoin="round"/>
<path d="M73.5735 133.94C75.299 134.424 77.0245 135.016 78.4264 136.199C79.6127 137.221 80.9607 138.082 82.2549 138.942C83.1715 139.534 84.4117 139.749 85.3823 140.395C87.3235 141.686 88.995 143.245 90.8823 144.536C93.4705 146.258 95.7353 148.463 98.5392 149.969C99.7254 150.614 100.642 151.636 101.882 152.282C102.637 152.658 103.446 152.927 104.363 152.658" stroke="#2D9964" stroke-width="3.685" stroke-miterlimit="10" stroke-linecap="round" stroke-linejoin="round"/>
<path d="M160.333 127.324C159.417 127.701 158.662 127.163 157.907 126.84C155.912 125.926 153.917 124.904 152.029 123.774C151.49 123.506 150.897 123.344 150.466 122.914C150.034 122.484 149.603 122.107 149.657 121.462C149.765 120.386 149.171 119.633 148.74 118.772C146.637 114.846 143.24 113.071 138.98 112.64C138.01 112.533 137.039 112.479 136.015 112.64C135.098 112.802 134.235 112.802 133.588 113.77C133.265 114.254 132.294 114.2 131.647 113.931C131.377 113.824 130.946 113.609 130.838 113.447C129.975 112.049 128.358 111.672 127.118 110.812C126.417 110.327 125.284 110.166 124.314 110.65C120.97 112.371 117.412 113.501 113.961 114.899C112.181 115.599 110.402 116.406 108.676 117.105C108.299 117.266 108.083 117.643 107.868 117.912" stroke="#2D9964" stroke-width="3.685" stroke-miterlimit="10" stroke-linecap="round" stroke-linejoin="round"/>
<path d="M131.539 136.038C130.245 137.006 128.627 137.221 127.172 137.813C123.073 139.373 118.975 140.825 115.039 142.762C114.069 143.246 112.99 143.353 112.073 143.999C111.534 144.375 110.833 144.429 110.294 143.676C109.809 143.031 109.054 142.708 108.299 142.331C107.975 142.17 107.706 142.009 107.49 141.74C106.412 140.395 104.848 140.341 103.338 140.234C101.828 140.126 100.319 140.234 98.9705 141.04C98.8088 141.148 98.5931 141.094 98.4852 141.309" stroke="#2D9964" stroke-width="3.685" stroke-miterlimit="10" stroke-linecap="round" stroke-linejoin="round"/>
<path d="M108.083 118.987C107.005 120.171 105.441 120.386 104.039 120.924C101.289 121.999 98.4853 122.86 95.6814 123.774C94.549 124.151 93.4167 124.527 92.2843 124.958C91.8529 125.119 91.4216 125.334 91.3137 125.872" stroke="#2D9964" stroke-width="3.685" stroke-miterlimit="10" stroke-linecap="round" stroke-linejoin="round"/>
<path d="M172.034 114.899C171.495 113.662 170.201 113.34 169.176 112.855C166.319 111.511 163.622 109.79 160.711 108.445C158.877 107.584 157.098 107.315 155.157 107.961C151.76 109.144 148.363 109.305 145.289 107.046C144.534 106.508 143.779 106.993 143.024 106.993C142.27 106.993 141.461 107.315 140.814 107.692C137.956 109.252 134.882 110.112 131.755 110.865C130.946 111.08 130.083 111.349 129.49 111.995" stroke="#2D9964" stroke-width="3.685" stroke-miterlimit="10" stroke-linecap="round" stroke-linejoin="round"/>
<path d="M89.8038 134.156C90.1274 135.07 90.6666 135.823 91.4215 136.415C93.147 137.706 94.9803 138.889 96.1666 140.718C96.3823 141.04 96.8676 140.933 97.1911 140.987C97.8921 141.04 98.593 141.148 98.7009 142.062C98.8087 142.708 99.4558 142.815 99.7793 143.192C100.75 144.375 101.882 145.505 102.961 146.634C104.255 147.979 104.686 148.087 106.25 147.226C107.76 146.365 109.377 145.612 110.618 144.321" stroke="#2D9964" stroke-width="3.685" stroke-miterlimit="10" stroke-linecap="round" stroke-linejoin="round"/>
<path d="M155.912 107.584C156.02 106.347 155.588 105.702 154.294 105.164C152.569 104.411 151.005 103.55 149.064 104.088C147.446 104.518 145.667 104.841 145.073 106.777" stroke="#2D9964" stroke-width="3.685" stroke-miterlimit="10" stroke-linecap="round" stroke-linejoin="round"/>
<path d="M112.882 122.053C112.99 122.053 113.152 121.999 113.206 122.053C114.662 123.774 116.926 124.205 118.652 125.549C120.863 127.324 123.181 128.884 125.446 130.498C126.147 130.982 126.686 131.574 126.74 132.488" stroke="#2D9964" stroke-width="3.685" stroke-miterlimit="10" stroke-linecap="round" stroke-linejoin="round"/>
<path d="M183.573 120.87C182.926 121.569 181.956 121.677 181.093 121.784C178.397 122.268 175.755 122.699 173.059 123.344C172.466 123.505 171.872 123.183 171.171 123.398C168.044 124.312 165.024 125.549 161.897 126.249C161.304 126.41 160.872 126.787 160.495 127.163" stroke="#2D9964" stroke-width="3.685" stroke-miterlimit="10" stroke-linecap="round" stroke-linejoin="round"/>
<path d="M185.461 121.031C184.652 120.87 183.951 120.816 183.196 120.171C180.716 118.127 177.804 116.943 174.838 115.814C174.676 115.76 174.461 115.814 174.245 115.814" stroke="#2D9964" stroke-width="3.685" stroke-miterlimit="10" stroke-linecap="round" stroke-linejoin="round"/>
<path d="M77.6715 128.131C78.9656 127.055 80.1519 127.002 81.0686 128.239C82.2548 129.852 84.0343 130.605 85.5441 131.735C86.3529 132.327 87.1617 133.026 88.0245 133.456C89.9656 134.478 90.7205 133.994 91.4215 132.542C92.5539 130.175 92.8235 127.916 90.9901 125.657C87.8088 126.679 84.3578 126.679 81.3921 128.4" stroke="#2D9964" stroke-width="3.685" stroke-miterlimit="10" stroke-linecap="round" stroke-linejoin="round"/>
<path d="M171.819 123.183C171.711 120.439 172.951 118.127 174.191 115.867C173.167 114.577 172.25 114.523 171.441 115.706C170.147 117.642 169.23 119.74 169.338 122.161C169.338 122.645 169.554 123.075 169.662 123.559" stroke="#2D9964" stroke-width="3.685" stroke-miterlimit="10" stroke-linecap="round" stroke-linejoin="round"/>
<path d="M138.225 155.079C138.603 155.455 138.603 155.886 138.603 156.37C138.603 158.037 138.765 159.705 138.549 161.318C138.387 162.717 138.279 164.115 138.225 165.568C138.225 165.944 138.064 166.321 137.848 166.589C137.309 167.342 137.363 168.042 137.74 168.849" stroke="#2D9964" stroke-width="3.685" stroke-miterlimit="10" stroke-linecap="round" stroke-linejoin="round"/>
<path d="M149.549 121.946C148.201 122.537 147.554 121.515 146.691 120.762C145.289 119.471 144.48 117.643 142.809 116.674C141.353 115.76 139.843 115.222 137.956 115.545C136.392 115.814 134.936 114.953 133.588 114.093" stroke="#2D9964" stroke-width="3.685" stroke-miterlimit="10" stroke-linecap="round" stroke-linejoin="round"/>
<path d="M137.632 115.814C138.064 117.212 139.358 117.643 140.49 118.127C141.838 118.772 143.186 119.364 144.75 118.987" stroke="#2D9964" stroke-width="3.685" stroke-miterlimit="10" stroke-linecap="round" stroke-linejoin="round"/>
<path d="M89.3186 126.518C89.3725 127.271 89.8039 127.916 89.9657 128.615C90.451 130.444 89.6421 132.165 89.6961 133.94" stroke="#2D9964" stroke-width="3.685" stroke-miterlimit="10" stroke-linecap="round" stroke-linejoin="round"/>
<path d="M105.603 126.087C105.118 126.195 104.686 126.356 104.201 126.033C103.554 125.657 102.961 125.872 102.529 126.571C102.206 127.163 101.667 127.701 101.235 128.293C100.48 128.024 99.5637 127.916 99.1323 127.055" stroke="#2D9964" stroke-width="3.685" stroke-miterlimit="10" stroke-linecap="round" stroke-linejoin="round"/>
<path d="M112.99 143.299C112.127 141.524 110.564 140.771 108.73 140.395C108.029 140.233 107.382 140.395 106.735 140.718" stroke="#2D9964" stroke-width="3.685" stroke-miterlimit="10" stroke-linecap="round" stroke-linejoin="round"/>
<path d="M151.436 112.317C150.627 112.264 149.872 112.102 149.064 112.102C148.417 112.102 147.877 112.425 147.5 113.017C147.284 113.393 146.907 113.608 146.422 113.501" stroke="#2D9964" stroke-width="3.685" stroke-miterlimit="10" stroke-linecap="round" stroke-linejoin="round"/>
<path d="M113.907 127.217C113.961 128.4 114.608 129.207 115.363 130.068C115.956 130.713 116.819 131.251 116.765 132.273" stroke="#2D9964" stroke-width="3.685" stroke-miterlimit="10" stroke-linecap="round" stroke-linejoin="round"/>
<path d="M104.201 160.242C103.662 161.426 103.554 162.663 103.176 163.846C102.691 165.298 102.961 166.805 102.745 168.203C102.529 169.602 101.936 170.892 101.828 172.345C101.828 172.614 101.559 172.883 101.397 173.152" stroke="#2D9964" stroke-width="3.685" stroke-miterlimit="10" stroke-linecap="round" stroke-linejoin="round"/>
<path d="M75.5686 152.981C76.3235 153.896 77.4559 154.38 78.1568 155.294C78.5882 155.832 78.75 156.316 78.75 156.962" stroke="#2D9964" stroke-width="3.685" stroke-miterlimit="10" stroke-linecap="round" stroke-linejoin="round"/>
<path d="M114.069 136.952C114.069 136.468 113.961 136.092 113.529 135.715C112.343 136.038 111.319 136.791 110.402 137.652" stroke="#2D9964" stroke-width="3.685" stroke-miterlimit="10" stroke-linecap="round" stroke-linejoin="round"/>
<path d="M189.02 138.835C189.451 139.911 189.02 140.879 188.642 141.901C188.534 142.17 188.319 142.439 188.426 142.708C188.75 143.407 188.696 144.214 188.373 144.805C187.779 145.881 187.995 147.011 188.049 148.14C188.049 148.732 187.887 149.377 187.51 149.915" stroke="#2D9964" stroke-width="3.685" stroke-miterlimit="10" stroke-linecap="round" stroke-linejoin="round"/>
<path d="M161.358 121.246C161.25 121.892 159.848 123.398 159.309 123.344C158.176 123.236 157.853 122.376 157.529 121.461" stroke="#2D9964" stroke-width="3.685" stroke-miterlimit="10" stroke-linecap="round" stroke-linejoin="round"/>
<path d="M101.936 175.411C103.122 175.895 104.578 175.249 105.711 176.11" stroke="#2D9964" stroke-width="3.685" stroke-miterlimit="10" stroke-linecap="round" stroke-linejoin="round"/>
<path d="M100.858 176.594C101.181 176.217 101.505 175.787 101.828 175.411C101.289 174.765 102.044 173.636 101.127 173.205C99.995 172.667 99.0783 171.484 97.6224 172.022" stroke="#2D9964" stroke-width="3.685" stroke-miterlimit="10" stroke-linecap="round" stroke-linejoin="round"/>
<path d="M114.77 123.667C114.338 124.581 113.853 125.496 113.961 126.625C114.015 127.002 113.853 127.163 113.475 127.109" stroke="#2D9964" stroke-width="3.685" stroke-miterlimit="10" stroke-linecap="round" stroke-linejoin="round"/>
<path d="M166.049 120.977C165.725 120.655 165.348 120.493 164.971 120.87C164 121.892 162.814 121.946 161.573 121.677" stroke="#2D9964" stroke-width="3.685" stroke-miterlimit="10" stroke-linecap="round" stroke-linejoin="round"/>
<path d="M160.819 127.109C160.711 126.84 160.387 126.733 160.118 126.84C159.632 127.055 159.201 126.894 158.554 126.518C158.446 126.464 158.284 126.41 158.176 126.302C156.343 125.442 154.402 124.474 152.353 123.29C152.137 123.183 151.922 123.075 151.76 123.021C151.436 122.86 151.113 122.752 150.897 122.537L150.735 122.376C150.358 121.999 150.196 121.784 150.25 121.515C150.358 120.44 149.873 119.633 149.495 118.933C149.441 118.772 149.333 118.665 149.279 118.503C147.554 115.33 145.02 113.34 141.407 112.479C140.652 112.318 139.897 112.156 139.034 112.102C138.064 111.995 137.039 111.941 135.961 112.102L135.691 112.156C134.828 112.264 133.858 112.425 133.211 113.501C133.157 113.608 132.564 113.662 131.917 113.447C131.647 113.34 131.377 113.178 131.377 113.178C130.73 112.102 129.706 111.618 128.735 111.134C128.412 110.973 128.142 110.811 127.873 110.65C128.034 110.489 128.25 110.381 128.52 110.22C132.078 108.445 135.799 107.154 139.304 106.078H139.358C141.299 105.486 143.294 104.841 145.181 103.98C145.99 103.604 146.853 103.227 147.608 102.743C148.471 102.205 149.441 101.721 150.466 101.506C150.735 101.452 150.951 101.183 150.897 100.861C150.843 100.592 150.574 100.377 150.25 100.43C149.064 100.646 147.985 101.237 147.015 101.829C146.529 102.098 146.044 102.367 145.505 102.636C143.402 103.658 141.245 104.357 138.926 105.056H138.873C135.368 106.186 131.593 107.477 127.926 109.252C127.549 109.413 127.118 109.682 126.794 110.112C125.931 109.736 124.907 109.736 124.044 110.22C121.725 111.403 119.245 112.318 116.873 113.232C115.848 113.608 114.77 113.985 113.745 114.415C112.559 114.899 111.319 115.437 110.186 115.921C109.593 116.19 109.054 116.405 108.461 116.674C108.083 116.836 107.868 117.105 107.652 117.32C107.221 117.051 106.627 116.943 106.034 117.266C104.039 118.342 101.828 118.933 99.7255 119.525C98.647 119.848 97.5147 120.117 96.4363 120.493C95.25 120.924 94.0098 121.3 92.8235 121.677C89.3725 122.806 85.8137 123.936 82.4706 125.442C82.3088 125.496 82.147 125.603 81.9853 125.657C81.3382 125.872 80.5833 126.195 80.2059 127.002C80.0441 126.948 79.8823 126.894 79.6667 126.84C79.397 126.786 79.0735 126.84 78.75 126.894C78.2647 127.002 77.7255 127.324 77.2402 127.755C77.0245 127.97 76.9706 128.293 77.1863 128.508C77.4019 128.723 77.7255 128.777 77.9412 128.561C78.3725 128.239 78.9657 127.808 79.5049 127.862C79.8823 127.916 80.2059 128.131 80.5294 128.561C81.3921 129.799 82.5784 130.552 83.7647 131.251C84.25 131.574 84.7353 131.843 85.1666 132.165C85.3823 132.327 85.5441 132.488 85.7598 132.596C86.3529 133.08 87 133.564 87.701 133.94C88.4559 134.371 89.1029 134.532 89.6421 134.532C89.8578 134.532 90.0735 134.478 90.2892 134.424C91.098 134.155 91.5833 133.402 91.8529 132.757C91.9608 132.542 92.0686 132.327 92.1764 132.058C92.9313 130.229 93.4166 127.808 91.4215 125.28C91.2598 125.119 91.0441 125.065 90.8284 125.119C89.6961 125.496 88.4559 125.711 87.3235 125.926C85.3284 126.302 83.2794 126.733 81.3921 127.755C81.2843 127.647 81.2304 127.54 81.1225 127.432C81.2843 126.894 81.6617 126.733 82.3627 126.464C82.5784 126.41 82.7402 126.302 82.9019 126.249C86.1912 124.743 89.75 123.613 93.147 122.483C94.3333 122.107 95.5735 121.73 96.7598 121.3C97.7843 120.924 98.9167 120.655 99.9412 120.332C102.152 119.74 104.417 119.095 106.466 117.965C106.735 117.804 106.951 117.965 107.005 118.019C107.652 118.987 108.623 119.364 109.431 119.633C109.647 119.686 109.863 119.794 110.078 119.902C110.833 120.224 111.48 120.816 111.912 121.515C111.912 121.569 111.966 121.569 111.966 121.623C111.966 121.677 112.02 121.73 112.02 121.784C111.157 124.097 110.995 126.141 111.534 127.97C111.912 129.099 112.343 130.605 113.422 131.574C114.123 132.273 115.093 132.703 116.495 132.703C116.549 132.757 116.657 132.811 116.765 132.865C119.73 133.994 122.75 134.102 125.824 133.187C126.956 132.865 127.819 133.026 128.897 133.779C129.652 134.317 130.245 134.962 130.676 135.608C130.946 135.984 131.324 136.253 131.809 136.307C131.917 136.307 132.078 136.361 132.186 136.361C132.672 136.361 133.211 136.199 133.642 135.877C133.804 135.769 133.912 135.661 133.966 135.554C134.127 135.393 134.181 135.339 134.235 135.339C134.505 135.339 134.774 135.124 134.774 134.801C134.774 134.478 134.559 134.263 134.235 134.263C133.696 134.209 133.373 134.586 133.157 134.801C133.103 134.855 133.049 134.962 132.995 134.962C132.672 135.177 132.294 135.285 131.971 135.231C131.755 135.177 131.647 135.124 131.539 134.962C131 134.209 130.353 133.51 129.49 132.865C128.627 132.219 127.333 131.52 125.5 132.111C122.696 132.972 119.892 132.865 117.196 131.843C117.196 131.843 117.142 131.843 117.142 131.789C117.034 131.681 116.873 131.52 116.549 131.574C115.794 131.627 115.201 131.466 114.716 131.197C113.529 130.552 113.044 129.207 112.505 127.593C112.02 125.98 112.127 124.205 112.936 122.107C113.152 121.569 112.882 121.139 112.774 120.977L112.721 120.924C112.181 119.955 111.319 119.256 110.348 118.826C110.132 118.718 109.863 118.665 109.647 118.557C109.054 118.342 108.515 118.18 108.137 117.804C108.299 117.535 108.461 117.427 108.623 117.32C109.216 117.051 109.809 116.836 110.348 116.567C111.534 116.083 112.721 115.545 113.907 115.061C114.931 114.63 115.956 114.254 116.98 113.877C119.407 112.963 121.941 112.049 124.314 110.811C125.123 110.381 126.039 110.596 126.524 110.919C126.956 111.242 127.441 111.457 127.873 111.726C128.735 112.156 129.544 112.586 130.083 113.393C130.245 113.608 130.569 113.877 131.108 114.093C132.024 114.469 133.265 114.469 133.696 113.716C134.127 113.017 134.667 112.963 135.422 112.855L135.745 112.802C136.716 112.64 137.632 112.748 138.549 112.802C139.196 112.855 139.843 112.963 140.436 113.071C143.833 113.824 146.314 115.652 147.931 118.611C147.985 118.772 148.093 118.933 148.201 119.041C148.578 119.686 148.902 120.278 148.848 120.977C148.74 121.838 149.279 122.322 149.657 122.699L149.765 122.806C150.142 123.183 150.574 123.398 150.951 123.559C151.113 123.613 151.274 123.721 151.436 123.774C153.539 124.958 155.48 125.98 157.368 126.84C157.475 126.894 157.583 126.948 157.691 127.002C158.123 127.217 158.716 127.54 159.309 127.54C159.578 127.54 159.848 127.486 160.172 127.378C160.819 127.701 160.926 127.378 160.819 127.109ZM87.5931 127.109C88.6715 126.894 89.8039 126.679 90.8823 126.356C92.0686 127.97 92.1765 129.745 91.2059 131.95C91.1519 132.111 91.098 132.219 91.0441 132.38C90.7206 133.026 90.451 133.402 90.1274 133.51C89.75 133.618 89.1568 133.51 88.4019 133.08C87.7549 132.757 87.2157 132.327 86.6225 131.843C86.4068 131.681 86.1912 131.52 86.0294 131.358C85.5441 130.982 85.0588 130.659 84.5735 130.39C83.9265 129.96 83.2794 129.53 82.6863 129.046C82.5784 128.938 82.4166 128.83 82.3088 128.723C83.8186 127.862 85.6519 127.486 87.5931 127.109Z" fill="#2D9964"/>
<path d="M27.3088 111.08C27.6863 111.08 27.7941 111.296 27.7402 111.672C27.6863 112.425 27.7402 113.178 27.7402 113.877C27.6324 116.943 29.7892 118.073 32.0539 119.041C34.1569 119.902 36.4755 120.063 38.6863 120.601C39.603 120.816 40.5196 121.085 41.4363 121.354C43.1618 121.838 44.8873 122.107 46.6667 122.107C48.5 122.107 50.0098 123.075 51.6275 123.613C53.0833 124.097 53.0294 124.259 53.5147 122.806C53.8922 121.623 54.2696 120.386 54.6471 119.202C54.9706 118.342 55.5637 118.019 56.4804 118.18C57.1275 118.288 57.7206 118.234 58.3137 118.073C59.8775 117.535 60.6324 116.137 60.4706 114.146C60.4706 113.877 60.4167 113.609 60.4706 113.393C61.4951 110.22 59.8235 107.853 57.9902 105.648C56.4265 103.765 54.4314 102.259 52.7059 100.484C49.7402 97.5259 47.7451 94.0835 48.3382 89.6191C48.6618 87.1987 50.4412 85.9615 52.1128 84.6168C53.4608 83.5949 54.9706 82.7881 56.2647 81.7123C57.7745 80.4752 58.3137 78.7002 58.3677 76.7638C58.4755 74.1282 57.5049 71.8691 56.4265 69.61C55.8873 68.5343 55.0784 67.5123 54.0539 66.7593C52.7059 65.7373 51.951 66.2214 51.3039 67.6199C51.1422 67.9426 51.1961 68.2115 51.0883 68.4805" stroke="#2D9964" stroke-width="3.685" stroke-miterlimit="10" stroke-linecap="round" stroke-linejoin="round"/>
<path d="M35.4511 63.5857C36.4756 64.4463 36.7452 65.5221 36.7991 66.9205C36.853 68.9107 37.2844 70.9546 37.2305 72.9448C37.1765 76.2796 36.9069 79.5069 33.9413 81.8198C33.456 82.1963 32.9707 82.5728 32.4854 82.6804C28.1177 83.7561 26.0687 88.7584 26.7158 93.0077C27.0932 95.3743 27.902 97.3645 29.304 99.2471C30.5442 100.968 32.0001 102.636 32.2158 104.841" stroke="#2D9964" stroke-width="3.685" stroke-miterlimit="10" stroke-linecap="round" stroke-linejoin="round"/>
<path d="M27.4706 115.921C24.7206 118.342 22.402 121.193 20.1373 123.99C16.3628 128.669 13.0736 133.618 9.8922 138.727C8.22064 141.471 6.27946 144.052 4.55397 146.742C4.01476 147.549 3.52946 148.463 3.09809 149.377C2.77456 150.077 3.15201 150.884 3.42162 151.475C3.74515 152.174 4.44613 152.336 5.3628 152.228C6.92652 152.013 8.59809 152.228 10.0001 153.143C11.2402 154.003 12.7501 153.896 14.152 154.326C15.1765 154.649 16.3089 154.702 17.2255 155.402C17.603 155.724 17.9804 156.101 18.5736 155.886C18.7353 155.832 18.951 155.886 19.0589 155.94C20.6765 157.015 22.5638 157.338 24.2893 158.091C24.8285 158.36 25.3138 158.521 25.9069 158.575C27.0393 158.629 27.7942 159.167 28.4412 160.296C30.005 163.093 31.2991 166.105 33.6177 168.418C34.3187 169.118 34.6422 170.14 35.7746 170.57C36.9069 171 37.8236 171 38.6863 170.14" stroke="#2D9964" stroke-width="3.685" stroke-miterlimit="10" stroke-linecap="round" stroke-linejoin="round"/>
<path d="M31.353 157.392C31.7304 157.714 32.1079 158.037 32.4853 158.36C34.4265 159.812 36.2598 159.436 37.554 157.392C38.6324 155.724 39.4951 153.949 40.304 152.174C40.7353 151.314 40.7893 150.776 39.6569 150.507C38.902 150.292 38.201 149.861 37.4461 149.539C36.3677 149.162 35.7746 149.431 35.2353 150.507C34.4804 152.013 33.6716 153.465 32.8628 154.917C32.5393 155.509 32.1618 156.101 31.353 156.262C30.3824 155.348 31.2451 154.541 31.5687 153.788C32.1079 152.497 32.1079 151.959 31.2451 151.529C30.2746 151.098 29.25 151.475 28.7647 152.443C28.3334 153.358 27.7942 154.218 27.3089 155.079C27.201 155.294 26.9853 155.133 26.7697 155.133" stroke="#2D9964" stroke-width="3.685" stroke-miterlimit="10" stroke-linecap="round" stroke-linejoin="round"/>
<path d="M60.3088 113.178C60.0392 112.963 59.7157 112.802 59.5 112.533C58.2059 110.704 56.1569 110.112 54.3235 109.036C50.9265 107.1 47.2059 107.1 43.5931 106.508C39.9804 105.971 36.4216 105.056 32.8088 104.895C32.2696 104.841 32.0539 105.056 31.7304 105.271C29.5735 106.67 28.4951 108.821 27.6863 111.134" stroke="#2D9964" stroke-width="3.685" stroke-miterlimit="10" stroke-linecap="round" stroke-linejoin="round"/>
<path d="M17.1177 133.402C18.0883 133.994 19.0049 134.64 20.1373 134.909C21.6471 133.833 22.2402 132.918 23.4265 129.637C22.7255 128.4 21.3236 128.669 20.1373 128.185C18.3039 129.368 18.3579 131.735 17.1177 133.349" stroke="#2D9964" stroke-width="3.685" stroke-miterlimit="10" stroke-linecap="round" stroke-linejoin="round"/>
<path d="M49.5246 85.3161C47.853 84.832 46.2354 85.2085 44.5638 85.3698C42.6765 85.5312 40.7354 85.3698 38.8481 85.4236C36.9609 85.4774 35.0736 85.5312 33.2942 86.1229C32.7011 86.2843 32.1618 86.4994 32.1079 87.2524" stroke="#2D9964" stroke-width="3.685" stroke-miterlimit="10" stroke-linecap="round" stroke-linejoin="round"/>
<path d="M54 139.588C54.3235 139.911 54.3235 140.287 54.2157 140.664C53.6225 143.514 53.1372 146.365 52.4902 149.216C52.1667 150.614 51.6814 152.067 51.4657 153.465C51.3039 154.541 51.3578 155.617 50.7647 156.585C50.4951 157.015 50.2794 157.499 49.9019 157.714C48.8235 158.414 48.0686 159.382 47.5294 160.458C47.3137 160.834 47.0441 161.264 46.7206 161.48C44.5637 163.039 43.5392 165.514 41.8137 167.342C41.4363 167.719 41.1127 168.042 40.6274 168.203" stroke="#2D9964" stroke-width="3.685" stroke-miterlimit="10" stroke-linecap="round" stroke-linejoin="round"/>
<path d="M31.4069 137.813C32.6471 138.996 33.7794 139.05 35.0196 137.974C36.0441 137.06 36.5294 135.93 36.7451 134.532C36.3137 134.102 35.7206 133.671 35.0196 133.564C34.1569 133.402 33.2941 133.295 33.0245 134.532C32.7549 135.715 31.6226 136.468 31.2451 137.652" stroke="#2D9964" stroke-width="3.685" stroke-miterlimit="10" stroke-linecap="round" stroke-linejoin="round"/>
<path d="M58.4216 132.865C58.3138 133.671 57.5589 133.241 57.1275 133.51C56.3726 133.94 56.1569 134.693 55.7255 135.339C54.4853 137.168 53.1912 138.996 52.2206 140.933C51.25 142.869 49.3628 143.837 48.2844 145.558C48.1226 145.774 47.853 146.096 47.7451 146.419C47.0442 148.355 47.0442 150.453 46.6667 152.497C46.2353 155.186 45.75 157.93 44.9412 160.511C44.6716 161.426 44.5638 162.179 44.7255 163.093" stroke="#2D9964" stroke-width="3.685" stroke-miterlimit="10" stroke-linecap="round" stroke-linejoin="round"/>
<path d="M53.8922 109.198C53.2452 109.682 52.4364 109.897 51.7893 110.327C49.7403 111.564 48.6618 113.555 47.9069 115.814C47.152 117.965 47.7991 120.009 48.2305 122.107" stroke="#2D9964" stroke-width="3.685" stroke-miterlimit="10" stroke-linecap="round" stroke-linejoin="round"/>
<path d="M45.75 96.1812C41.6519 96.4501 37.6078 96.5039 33.5098 97.0418C32.701 97.1493 31.9461 97.5796 31.1912 97.8486" stroke="#2D9964" stroke-width="3.685" stroke-miterlimit="10" stroke-linecap="round" stroke-linejoin="round"/>
<path d="M53.4069 80.3675C50.5491 80.2599 47.6912 80.1523 44.8873 80.0985C43.054 80.0985 41.2206 80.1523 39.3873 80.3137C38.902 80.3675 38.7402 79.991 38.3628 79.991" stroke="#2D9964" stroke-width="3.685" stroke-miterlimit="10" stroke-linecap="round" stroke-linejoin="round"/>
<path d="M46.8824 148.624C46.1275 148.678 45.6422 149.27 45.2648 149.808C44.402 151.152 43.5932 152.551 42.7844 153.949C42.4069 154.649 41.9755 155.294 41.3285 155.832C39.8726 157.069 39.8726 158.79 39.9265 160.511C39.9265 160.511 39.9805 160.511 40.0344 160.511C40.0883 160.511 40.1422 160.458 40.1961 160.458" stroke="#2D9964" stroke-width="3.685" stroke-miterlimit="10" stroke-linecap="round" stroke-linejoin="round"/>
<path d="M59.8774 117.374C61.4412 118.557 63.3284 118.933 65.1618 119.525C66.0245 119.794 66.8333 120.117 67.5343 120.601C67.6961 121.623 67.6422 122.537 66.6716 123.075C66.2402 123.344 66.2402 123.828 66.0784 124.258C65.2157 127.271 63.7598 130.121 63.7598 133.349C63.7598 134.747 63.4363 136.146 63.1127 137.544C62.951 138.189 63.1667 138.62 63.2745 139.158" stroke="#2D9964" stroke-width="3.685" stroke-miterlimit="10" stroke-linecap="round" stroke-linejoin="round"/>
<path d="M40.3039 124.904C39.9804 124.366 39.4412 124.205 38.9019 124.043C36.6372 123.344 34.2108 123.505 31.9461 122.752C30.7059 122.322 29.4657 121.945 28.2794 121.408C26.7696 120.708 26.1764 120.816 25.0441 121.945C24.1813 122.86 23.8039 124.151 22.7255 125.011C22.9951 125.711 23.5882 125.98 24.2892 126.141C25.4755 126.464 26.6078 126.84 27.7941 126.894C28.6029 126.948 29.5196 127.002 29.5196 125.764" stroke="#2D9964" stroke-width="3.685" stroke-miterlimit="10" stroke-linecap="round" stroke-linejoin="round"/>
<path d="M54.3236 76.0644C52.9217 76.3334 51.5736 76.1182 50.1716 75.9569C47.853 75.6879 45.5883 75.0963 43.2697 75.0425C42.5687 75.0425 41.8677 75.0963 41.1667 75.0963" stroke="#2D9964" stroke-width="3.685" stroke-miterlimit="10" stroke-linecap="round" stroke-linejoin="round"/>
<path d="M23.2108 140.18C22.7794 139.48 22.0245 139.48 21.3775 139.265C20.5686 138.996 20.1912 139.695 19.9216 140.341C19.5981 141.202 19.3284 142.062 19.0588 142.977C19.3284 143.245 19.5981 143.568 19.9216 143.837C20.6765 144.429 21.5392 144.214 22.0784 143.353C22.4559 142.708 22.8873 142.062 22.9951 141.363C23.1569 140.287 23.6961 140.072 24.6128 140.341" stroke="#2D9964" stroke-width="3.685" stroke-miterlimit="10" stroke-linecap="round" stroke-linejoin="round"/>
<path d="M47.7452 145.774C46.7206 145.128 47.2059 144.268 47.5834 143.568C48.1765 142.439 48.7697 141.256 49.3089 140.072C49.6863 139.158 49.4167 138.835 48.6079 138.674C45.5883 137.921 45.5883 137.921 44.2942 140.718C43.9167 141.578 43.4854 142.385 42.8922 143.084C42.2991 143.837 41.8138 144.59 41.3285 145.397C42.4069 146.634 44.1863 146.903 45.5344 146.096C46.0736 145.774 46.505 145.29 47.2059 145.343" stroke="#2D9964" stroke-width="3.685" stroke-miterlimit="10" stroke-linecap="round" stroke-linejoin="round"/>
<path d="M46.9902 101.452C43.2696 100.538 39.6569 101.291 35.9902 101.883C35.5588 101.937 35.2353 101.99 35.1274 102.421" stroke="#2D9964" stroke-width="3.685" stroke-miterlimit="10" stroke-linecap="round" stroke-linejoin="round"/>
<path d="M44.3481 91.663C42.6765 90.9637 40.951 90.9637 39.2255 91.1789C37.2304 91.394 35.1814 91.1789 33.1863 91.663C32.5932 91.8243 31.8383 91.7705 31.4608 92.416" stroke="#2D9964" stroke-width="3.685" stroke-miterlimit="10" stroke-linecap="round" stroke-linejoin="round"/>
<path d="M3.90688 152.389C1.6961 154.864 3.09806 158.736 6.17159 159.758C6.98041 160.027 7.51963 159.705 8.16669 159.382" stroke="#2D9964" stroke-width="3.685" stroke-miterlimit="10" stroke-linecap="round" stroke-linejoin="round"/>
<path d="M51.3579 67.2971C50.4412 66.8668 49.5785 66.1675 48.3922 66.9206C47.7991 67.2971 46.9902 66.9206 46.6128 66.1675C46.0736 65.0918 45.3726 64.7691 44.3481 65.5759C43.7549 66.06 43.2157 65.8986 42.6765 65.3607C42.4608 65.1456 42.4069 64.6077 42.0294 64.6615C41.4363 64.7153 41.3824 65.0918 41.2206 65.3607C40.1961 66.9744 39.603 67.1895 38.201 66.06C37.8236 65.7372 37.4461 65.5759 36.9608 65.5221" stroke="#2D9964" stroke-width="3.685" stroke-miterlimit="10" stroke-linecap="round" stroke-linejoin="round"/>
<path d="M61.3872 129.691C61.549 130.229 61.4951 130.713 61.3872 131.251C60.7941 134.801 60.201 138.351 59.6078 141.847C59.5 142.546 59.5 143.192 59.9853 143.73" stroke="#2D9964" stroke-width="3.685" stroke-miterlimit="10" stroke-linecap="round" stroke-linejoin="round"/>
<path d="M25.3137 158.79C25.098 159.543 25.5833 160.135 25.9608 160.673C27.147 162.717 28.1715 164.815 29.8431 166.482C30.3823 167.02 30.7598 167.612 31.0294 168.311C31.5147 169.763 33.0784 170.462 34.5343 169.871" stroke="#2D9964" stroke-width="3.685" stroke-miterlimit="10" stroke-linecap="round" stroke-linejoin="round"/>
<path d="M21.701 157.607C21.5392 159.059 22.5637 160.027 23.1029 161.157C23.9117 162.717 25.2059 163.954 26.3382 165.299C26.6078 165.621 26.8774 165.89 26.9853 166.428C27.2549 168.096 29.3039 169.279 30.9755 168.849" stroke="#2D9964" stroke-width="3.685" stroke-miterlimit="10" stroke-linecap="round" stroke-linejoin="round"/>
<path d="M58.2059 133.456C58.4216 135.5 57.5589 137.329 57.1275 139.265C56.4804 142.062 55.5637 144.859 55.4559 147.71C55.3481 149.969 54.4853 151.744 53.299 153.465C52.9216 154.057 52.4363 154.541 51.6814 154.648" stroke="#2D9964" stroke-width="3.685" stroke-miterlimit="10" stroke-linecap="round" stroke-linejoin="round"/>
<path d="M17.7647 156.047C17.5491 156.8 18.0344 157.284 18.4118 157.822C19.5442 159.382 21.054 160.673 22.0245 162.394C22.5098 163.308 22.9951 164.169 23.2647 165.191C23.5883 166.213 24.451 166.751 25.4755 166.966C25.9608 167.074 26.3922 167.02 26.8775 167.074" stroke="#2D9964" stroke-width="3.685" stroke-miterlimit="10" stroke-linecap="round" stroke-linejoin="round"/>
<path d="M55.0784 127.701C54.7549 127.97 54.4314 128.077 54 127.916C51.951 127.324 49.9559 126.733 47.853 126.41C47.7451 126.41 47.6912 126.248 47.6373 126.248C45.8579 126.464 44.3481 125.818 42.8922 124.904C42.1373 124.42 41.1128 124.85 40.25 125.227C39.7647 125.442 39.3873 125.872 38.902 126.195C38.902 126.948 39.6569 127.378 39.6569 128.131" stroke="#2D9964" stroke-width="3.685" stroke-miterlimit="10" stroke-linecap="round" stroke-linejoin="round"/>
<path d="M14.8529 152.389C15.3921 152.12 15.6078 152.658 15.9313 152.82C17.1176 153.411 18.1421 153.25 18.8431 152.228C19.4902 151.314 20.0294 150.238 20.2451 149.055C20.4068 148.194 20.1911 147.602 19.2206 147.441C18.8431 147.387 18.4657 147.333 18.0882 147.28C17.0098 147.172 16.5784 147.495 16.3088 148.57C16.0392 149.808 15.8774 151.045 15.2304 152.174" stroke="#2D9964" stroke-width="3.685" stroke-miterlimit="10" stroke-linecap="round" stroke-linejoin="round"/>
<path d="M30.5442 132.327C30.1128 131.735 29.6275 131.197 28.9265 131.036C27.6863 130.713 26.9314 131.466 26.3922 132.434C25.6912 133.564 25.0442 134.693 24.3971 135.823C24.7206 136.522 25.4216 136.737 25.9608 137.006C26.6618 137.329 27.5785 137.383 28.2255 136.63C29.304 135.393 30.2745 134.102 30.5442 132.434" stroke="#2D9964" stroke-width="3.685" stroke-miterlimit="10" stroke-linecap="round" stroke-linejoin="round"/>
<path d="M65.7549 127.647C66.1863 128.185 66.1324 128.777 66.0245 129.368C65.5932 130.982 65.8628 132.595 65.5392 134.209C65.4314 134.801 65.6471 135.392 65.9167 135.93" stroke="#2D9964" stroke-width="3.685" stroke-miterlimit="10" stroke-linecap="round" stroke-linejoin="round"/>
<path d="M68.9363 124.474C68.5049 127.055 68.3971 129.691 69.0441 132.273" stroke="#2D9964" stroke-width="3.685" stroke-miterlimit="10" stroke-linecap="round" stroke-linejoin="round"/>
<path d="M7.62744 152.712C7.78921 154.218 8.92156 155.24 9.5147 156.477C9.89215 157.23 10.4314 157.876 11.0245 158.521C11.6176 159.22 11.7794 159.974 11.5637 160.834" stroke="#2D9964" stroke-width="3.685" stroke-miterlimit="10" stroke-linecap="round" stroke-linejoin="round"/>
<path d="M51.0883 143.299C51.5197 144.16 51.1422 145.074 50.9265 145.881C49.902 149.539 49.0932 153.304 48.2844 157.015C48.1765 157.499 48.2305 157.876 48.5001 158.199" stroke="#2D9964" stroke-width="3.685" stroke-miterlimit="10" stroke-linecap="round" stroke-linejoin="round"/>
<path d="M43.7549 135.984C43.4853 136.199 43.1078 136.145 42.8382 136.038C39.8725 134.855 38.5245 135.5 37.5 138.458C37.4461 138.62 37.3921 138.781 37.2843 139.05C38.2549 139.588 39.3333 140.448 40.3578 139.911C41.7059 139.158 43.0539 138.136 42.9461 136.199" stroke="#2D9964" stroke-width="3.685" stroke-miterlimit="10" stroke-linecap="round" stroke-linejoin="round"/>
<path d="M30.7598 147.011C31.4607 147.172 31.6225 146.58 31.7843 146.15C32.2157 145.182 32.647 144.268 33.2402 143.407C33.9951 142.385 34.75 142.17 35.8284 142.761C36.8529 143.353 36.9068 143.783 36.3676 145.074C36.0441 145.827 35.6666 146.419 35.0196 146.957C33.6715 148.086 32.8088 148.14 31.3529 147.011" stroke="#2D9964" stroke-width="3.685" stroke-miterlimit="10" stroke-linecap="round" stroke-linejoin="round"/>
<path d="M29.8431 141.955C28.4412 140.502 26.8775 140.395 25.853 142.385C25.5833 142.923 25.0441 143.461 24.8824 144.052C24.7206 144.59 24.3431 144.698 23.9657 144.805" stroke="#2D9964" stroke-width="3.685" stroke-miterlimit="10" stroke-linecap="round" stroke-linejoin="round"/>
<path d="M67.5343 122.591C68.7745 123.936 70.3922 124.958 71.0392 126.787C71.3088 127.486 71.4706 128.185 71.1471 128.992C70.6078 130.283 70.5 131.627 69.0441 132.488C68.3971 132.865 68.3431 134.102 67.75 134.532C65.9167 135.769 65.1618 137.921 63.4363 139.265C62.8971 139.696 62.7353 140.556 62.3039 141.148C60.6323 143.515 58.9069 145.827 57.1814 148.14C56.75 148.732 56.3725 149.27 55.5637 149.324" stroke="#2D9964" stroke-width="3.685" stroke-miterlimit="10" stroke-linecap="round" stroke-linejoin="round"/>
<path d="M31.1912 141.632C30.1667 141.739 29.6275 142.277 29.3579 143.299C29.1961 143.945 28.7647 144.59 28.3334 145.074C27.4167 146.096 26.2843 145.989 24.7745 144.805" stroke="#2D9964" stroke-width="3.685" stroke-miterlimit="10" stroke-linecap="round" stroke-linejoin="round"/>
<path d="M37.0687 123.882C37.2305 124.742 37.0148 125.657 36.4216 126.087C35.3971 126.894 34.9118 127.97 34.4265 129.099C32.3775 128.992 30.652 128.346 29.3579 126.733" stroke="#2D9964" stroke-width="3.685" stroke-miterlimit="10" stroke-linecap="round" stroke-linejoin="round"/>
<path d="M40.7353 161.426C41.0588 161.802 41.1127 162.286 41.0588 162.77C40.8431 164.653 40.25 166.482 40.4117 168.364C40.4657 169.225 39.6029 169.655 39.0098 170.086" stroke="#2D9964" stroke-width="3.685" stroke-miterlimit="10" stroke-linecap="round" stroke-linejoin="round"/>
<path d="M13.6128 154.541C13.6667 154.918 13.5589 155.294 13.7206 155.563C14.9608 157.661 15.3383 160.135 16.6863 162.125C17.2255 162.878 17.9265 163.416 18.6814 163.793C20.0834 164.546 21.4314 165.675 23.2108 165.568" stroke="#2D9964" stroke-width="3.685" stroke-miterlimit="10" stroke-linecap="round" stroke-linejoin="round"/>
<path d="M21.6471 153.949C22.7795 154.756 24.0197 154.595 24.8285 153.519C25.2059 153.035 25.6373 152.497 25.7452 151.852C25.7991 151.368 26.554 150.884 25.7452 150.399C25.0981 150.023 24.5589 149.324 23.5883 149.915C23.2648 150.13 23.2648 150.292 23.1569 150.561C22.7256 151.583 22.2403 152.551 21.8089 153.573C21.6471 154.003 21.3775 153.68 21.1079 153.734" stroke="#2D9964" stroke-width="3.685" stroke-miterlimit="10" stroke-linecap="round" stroke-linejoin="round"/>
<path d="M4.66174 152.497C5.14704 154.756 6.81861 156.316 7.7892 158.306C8.27449 159.274 8.86762 160.081 9.83821 160.35C11.5637 160.834 13.0735 161.802 14.6912 162.555C15.2843 162.824 15.9313 162.609 16.5245 162.34" stroke="#2D9964" stroke-width="3.685" stroke-miterlimit="10" stroke-linecap="round" stroke-linejoin="round"/>
<path d="M52.3824 130.39C51.1422 129.099 50.4412 129.099 49.1471 130.552C48.5 131.251 47.9608 132.058 47.7451 132.972" stroke="#2D9964" stroke-width="3.685" stroke-miterlimit="10" stroke-linecap="round" stroke-linejoin="round"/>
<path d="M65.3775 125.657C63.5981 125.442 62.8432 125.926 62.1961 127.486C61.8187 128.454 61.5491 129.476 60.3089 129.96C59.5 130.283 59.0687 131.359 58.6373 132.219C58.5295 132.434 58.3677 132.811 58.9069 132.757" stroke="#2D9964" stroke-width="3.685" stroke-miterlimit="10" stroke-linecap="round" stroke-linejoin="round"/>
<path d="M45.6422 126.518C46.451 128.562 46.2354 129.368 44.4559 130.874C43.9707 131.251 43.5393 131.681 43.1079 132.112" stroke="#2D9964" stroke-width="3.685" stroke-miterlimit="10" stroke-linecap="round" stroke-linejoin="round"/>
<path d="M54.2157 128.185C54.0539 128.615 54.0539 129.207 53.7304 129.368C52.4902 130.121 52.0588 131.466 51.1961 132.488C50.3872 133.456 49.5245 133.833 48.4461 133.349C47.4216 132.865 46.451 132.703 45.3725 133.026C45.1029 133.08 44.8872 133.134 44.6176 132.972C43.3774 132.219 41.9216 132.058 40.5196 131.627C40.0343 131.466 39.7108 131.305 39.4412 130.928" stroke="#2D9964" stroke-width="3.685" stroke-miterlimit="10" stroke-linecap="round" stroke-linejoin="round"/>
<path d="M33.2403 161.964C33.1863 163.792 35.0736 166.536 36.853 167.181" stroke="#2D9964" stroke-width="3.685" stroke-miterlimit="10" stroke-linecap="round" stroke-linejoin="round"/>
<path d="M13.1275 145.881C12.5344 145.989 11.9412 146.204 11.2942 145.774C10.8089 145.451 10.1618 145.559 9.78438 146.258C9.24517 147.226 8.27458 147.871 7.95105 148.947C9.29909 150.561 9.89223 150.453 11.1324 148.678C11.6177 147.925 11.9412 147.118 12.1569 146.258" stroke="#2D9964" stroke-width="3.685" stroke-miterlimit="10" stroke-linecap="round" stroke-linejoin="round"/>
<path d="M11.348 154.057C11.4559 156.047 13.1814 158.36 14.799 158.736" stroke="#2D9964" stroke-width="3.685" stroke-miterlimit="10" stroke-linecap="round" stroke-linejoin="round"/>
<path d="M37.2305 165.675C36.206 164.976 35.7207 163.9 35.1815 162.878C35.0197 162.502 34.9658 161.91 34.5344 161.91C32.6471 161.856 31.5687 160.189 29.9511 159.597C29.3579 159.382 28.8726 159.382 28.3873 159.651" stroke="#2D9964" stroke-width="3.685" stroke-miterlimit="10" stroke-linecap="round" stroke-linejoin="round"/>
<path d="M39.8187 160.619C39.0638 161.426 38.4706 162.179 38.5246 163.416C38.5785 164.062 38.1471 164.815 37.7157 165.514C36.5295 167.343 37.1765 168.902 38.4167 170.409" stroke="#2D9964" stroke-width="3.685" stroke-miterlimit="10" stroke-linecap="round" stroke-linejoin="round"/>
<path d="M13.8823 137.705C14.799 137.383 15.6617 137.383 16.4706 138.028C16.201 139.427 15.5 140.664 14.4755 141.739C14.2059 142.062 13.6127 142.17 13.6667 142.761" stroke="#2D9964" stroke-width="3.685" stroke-miterlimit="10" stroke-linecap="round" stroke-linejoin="round"/>
<path d="M42.1912 155.671C42.7844 157.177 42.1373 158.468 41.3285 159.705" stroke="#2D9964" stroke-width="3.685" stroke-miterlimit="10" stroke-linecap="round" stroke-linejoin="round"/>
<path d="M29.951 125.28C30.3285 125.065 30.7059 124.85 31.0834 124.635C30.4363 123.236 30.1128 123.129 28.5491 123.505" stroke="#2D9964" stroke-width="3.685" stroke-miterlimit="10" stroke-linecap="round" stroke-linejoin="round"/>
<path d="M27.2549 155.348C27.9559 156.37 28.8725 156.639 30.0049 156.047C30.2745 155.886 30.598 155.94 30.9216 155.94" stroke="#2D9964" stroke-width="3.685" stroke-miterlimit="10" stroke-linecap="round" stroke-linejoin="round"/>
<path d="M34.9117 129.53C35.9902 130.444 37.1764 130.82 38.5784 130.336" stroke="#2D9964" stroke-width="3.685" stroke-miterlimit="10" stroke-linecap="round" stroke-linejoin="round"/>
<path d="M13.505 137.437C13.6667 137.598 13.9363 137.652 13.7207 138.082C13.1814 139.05 12.7501 140.072 12.2648 141.148C12.5883 141.686 12.9118 142.116 13.6128 142.224" stroke="#2D9964" stroke-width="3.685" stroke-miterlimit="10" stroke-linecap="round" stroke-linejoin="round"/>
<path d="M34.2647 123.559C34.103 124.796 33.6716 126.087 35.1814 126.84" stroke="#2D9964" stroke-width="3.685" stroke-miterlimit="10" stroke-linecap="round" stroke-linejoin="round"/>
<path d="M43.4853 126.786C42.5147 127.217 41.5441 127.647 40.5735 128.024C39.2794 128.508 38.902 129.261 39.1716 130.659" stroke="#2D9964" stroke-width="3.685" stroke-miterlimit="10" stroke-linecap="round" stroke-linejoin="round"/>
<path d="M38.4166 162.233C37.2304 162.125 36.098 161.641 34.9117 162.071" stroke="#2D9964" stroke-width="3.685" stroke-miterlimit="10" stroke-linecap="round" stroke-linejoin="round"/>
<path d="M37.1226 141.901C36.9609 142.331 37.1765 142.923 36.6373 143.246" stroke="#2D9964" stroke-width="3.685" stroke-miterlimit="10" stroke-linecap="round" stroke-linejoin="round"/>
<path d="M127.064 22.8682C125.985 23.3523 125.284 24.2666 124.476 25.1272C122.588 27.0636 120.647 28.9462 119.569 31.5818C119.299 32.281 118.976 32.9265 119.029 33.7333C119.083 34.2712 118.868 34.8629 118.544 35.1318C117.196 36.1538 117.142 37.6598 116.711 39.0583C116.603 39.381 116.549 39.7576 116.495 40.1341" stroke="#2D9964" stroke-width="3.685" stroke-miterlimit="10" stroke-linecap="round" stroke-linejoin="round"/>
<path d="M112.667 21.8462C113.206 22.9219 113.206 24.0515 112.667 25.1272C112.559 25.2886 112.397 25.3962 112.505 25.7189C112.882 26.4719 112.343 27.1174 111.966 27.7091C111.049 29.1613 109.755 30.2371 108.515 31.4742C108.137 31.8507 107.544 31.8507 107.113 32.1735C106.358 32.7113 105.873 33.3568 106.304 34.325C106.789 35.4545 106.681 36.5841 106.412 37.7136" stroke="#2D9964" stroke-width="3.685" stroke-miterlimit="10" stroke-linecap="round" stroke-linejoin="round"/>
<path d="M106.574 84.8318C108.083 85.1007 109.755 85.0469 111.157 85.6924C112.99 86.553 114.931 87.2523 116.333 88.8121C117.735 90.372 117.574 94.1909 115.956 95.9659C114.931 97.0416 113.745 97.9022 112.397 98.6553C110.402 99.8386 108.515 99.6772 106.412 99.6235C103.824 99.5159 101.289 99.0318 98.7549 98.6553C97.4068 98.4401 96.1127 98.0636 96.1667 96.2886C96.1667 96.181 96.0588 96.0735 96.0049 95.9121" stroke="#2D9964" stroke-width="3.685" stroke-miterlimit="10" stroke-linecap="round" stroke-linejoin="round"/>
<path d="M106.574 76.1182C107.113 78.0007 106.789 79.8833 106.789 81.7659C106.789 83.5409 106.358 85.3697 106.304 87.1447C106.25 88.5432 106.034 89.9954 105.711 91.3939C105.387 93.0076 105.387 94.6212 105.172 96.2348C105.01 97.2568 104.686 98.225 104.794 99.3007" stroke="#2D9964" stroke-width="3.685" stroke-miterlimit="10" stroke-linecap="round" stroke-linejoin="round"/>
<path d="M112.775 67.8887C112.882 70.5781 112.397 73.3213 112.882 76.0106C113.098 77.1402 112.882 78.3235 112.721 79.3993C112.505 80.9054 112.343 82.4652 112.289 83.9713C112.235 84.5629 112.074 85.1546 111.966 85.7463" stroke="#2D9964" stroke-width="3.685" stroke-miterlimit="10" stroke-linecap="round" stroke-linejoin="round"/>
<path d="M112.667 86.7144C112.181 87.9515 111.912 89.2424 111.804 90.5871C111.696 92.0932 111.427 93.653 111.48 95.1591C111.48 96.2886 111.804 97.3644 112.343 98.3325" stroke="#2D9964" stroke-width="3.685" stroke-miterlimit="10" stroke-linecap="round" stroke-linejoin="round"/>
<path d="M117.627 79.0765C117.681 78.0545 117.573 77.0325 117.843 76.0106C118.113 74.8272 117.142 73.6977 115.74 73.5901C113.745 73.375 111.696 73.2674 109.755 73.6977C109.054 73.8591 108.191 73.7515 107.76 74.5045C107.059 75.6341 105.98 76.0643 104.794 76.4947C103.015 77.1939 101.559 78.431 100.426 79.9909C100.049 80.5287 99.8333 81.0666 99.8333 81.7659C99.7794 82.6803 100.157 83.1644 101.02 83.4333C102.745 84.025 104.578 84.1863 106.304 84.7242" stroke="#2D9964" stroke-width="3.685" stroke-miterlimit="10" stroke-linecap="round" stroke-linejoin="round"/>
<path d="M110.564 99.8386C110.779 101.345 110.726 102.797 110.402 104.303C110.24 104.948 110.186 105.648 110.078 106.293" stroke="#2D9964" stroke-width="3.685" stroke-miterlimit="10" stroke-linecap="round" stroke-linejoin="round"/>
<path d="M107.005 67.9963C107.059 69.2872 107.221 70.5782 107.221 71.8691C107.221 72.5683 107.436 73.2138 107.814 73.7516" stroke="#2D9964" stroke-width="3.685" stroke-miterlimit="10" stroke-linecap="round" stroke-linejoin="round"/>
<path d="M104.201 99.7312C104.363 101.183 103.931 102.582 103.716 103.98" stroke="#2D9964" stroke-width="3.685" stroke-miterlimit="10" stroke-linecap="round" stroke-linejoin="round"/>
<path d="M103.015 112.909C102.745 114.63 101.289 115.383 100.049 116.298C97.0294 118.503 93.8481 120.439 90.5049 122.053C87.5392 123.505 84.5196 124.689 81.3383 125.603" stroke="#2D9964" stroke-width="3.685" stroke-miterlimit="10" stroke-linecap="round" stroke-linejoin="round"/>
<path d="M107.113 114.792C106.628 115.814 106.034 116.674 105.118 117.374C104.309 118.019 103.5 118.611 102.637 119.202" stroke="#2D9964" stroke-width="3.685" stroke-miterlimit="10" stroke-linecap="round" stroke-linejoin="round"/>
<path d="M96.4902 111.403C95.0882 112.963 93.4706 114.2 91.7451 115.437C87.9167 118.127 83.549 119.794 79.451 121.999C79.2892 122.053 79.1275 122.107 78.9657 122.107" stroke="#2D9964" stroke-width="3.685" stroke-miterlimit="10" stroke-linecap="round" stroke-linejoin="round"/>
<path d="M81.8236 104.895C80.152 106.67 77.8334 107.315 75.6765 108.23C73.6275 109.144 71.5245 110.058 69.2059 110.435C68.3971 110.542 67.6422 110.704 66.8334 110.758C66.2941 110.811 65.8628 110.919 65.4314 111.134" stroke="#2D9964" stroke-width="3.685" stroke-miterlimit="10" stroke-linecap="round" stroke-linejoin="round"/>
<path d="M85.5981 107.477C84.8971 109.09 83.4412 109.789 81.9314 110.381C79.2893 111.511 76.701 112.64 74.005 113.662C72.6569 114.146 71.255 114.738 69.7991 114.523" stroke="#2D9964" stroke-width="3.685" stroke-miterlimit="10" stroke-linecap="round" stroke-linejoin="round"/>
<path d="M94.0638 107.261C91.7452 109.628 88.8873 111.242 86.0295 112.909C82.6324 114.846 79.0197 116.352 75.5148 118.073C74.2746 118.665 72.9266 118.718 71.6324 119.149" stroke="#2D9964" stroke-width="3.685" stroke-miterlimit="10" stroke-linecap="round" stroke-linejoin="round"/>
<path d="M73.304 94.7825C71.0393 96.8802 68.1814 97.3105 65.2696 97.687C64.5147 97.7946 63.7059 97.687 62.8971 97.687" stroke="#2D9964" stroke-width="3.685" stroke-miterlimit="10" stroke-linecap="round" stroke-linejoin="round"/>
<path d="M72.0099 89.9954C69.9609 91.2863 67.6422 91.8242 65.2697 92.3083C64.1912 92.5234 63.1128 92.7385 61.9805 92.6848" stroke="#2D9964" stroke-width="3.685" stroke-miterlimit="10" stroke-linecap="round" stroke-linejoin="round"/>
<path d="M78.7501 102.313C76.7011 103.873 74.3285 104.68 71.9021 105.379C69.907 105.971 67.8579 106.401 65.755 106.831C64.9462 106.993 64.1373 106.724 63.3824 107.154" stroke="#2D9964" stroke-width="3.685" stroke-miterlimit="10" stroke-linecap="round" stroke-linejoin="round"/>
<path d="M70.2844 85.4236C69.152 86.4456 67.6422 86.7683 66.2402 87.1448C64.7304 87.5213 63.1667 87.844 61.5491 87.7902" stroke="#2D9964" stroke-width="3.685" stroke-miterlimit="10" stroke-linecap="round" stroke-linejoin="round"/>
<path d="M74.7599 99.1394C72.5491 100.699 70.0148 101.345 67.4266 101.936C66.456 102.152 65.3236 102.152 64.353 101.614" stroke="#2D9964" stroke-width="3.685" stroke-miterlimit="10" stroke-linecap="round" stroke-linejoin="round"/>
<path d="M70.5 79.6682C68.9363 80.3137 67.3187 80.9591 65.6471 81.3894C64.9461 81.5508 64.299 81.2818 63.652 81.0667" stroke="#2D9964" stroke-width="3.685" stroke-miterlimit="10" stroke-linecap="round" stroke-linejoin="round"/>
<path d="M71.201 74.8274C69.9608 74.666 68.9363 75.419 67.804 75.688C67.2647 75.8493 66.7795 75.7955 66.2402 75.6342" stroke="#2D9964" stroke-width="3.685" stroke-miterlimit="10" stroke-linecap="round" stroke-linejoin="round"/>
<path d="M72.603 68.9644C71.4167 69.556 70.2844 70.4166 68.8285 70.3628" stroke="#2D9964" stroke-width="3.685" stroke-miterlimit="10" stroke-linecap="round" stroke-linejoin="round"/>
<path d="M74.5981 63.8008C74.0049 64.8228 72.7647 64.8227 71.902 65.3068" stroke="#2D9964" stroke-width="3.685" stroke-miterlimit="10" stroke-linecap="round" stroke-linejoin="round"/>
<path d="M113.745 47.3416C114.608 46.8575 115.363 46.5886 116.495 46.8038C118.059 47.0727 119.569 47.3954 121.078 47.8257C122.372 48.2022 123.613 48.6325 124.637 49.6007C125.446 50.3 126.47 50.5151 127.441 50.8916C128.142 51.1606 129.544 49.8697 129.544 48.9015C129.544 47.8795 129.652 47.0189 130.461 46.1583C131.647 44.9212 131.27 42.9848 129.921 41.6401C129.49 41.2098 129.113 40.8333 128.735 40.3492C128.142 39.5424 127.495 38.8969 126.417 38.4666C125.446 38.0901 124.529 37.3909 123.451 37.1757C121.887 36.9068 120.431 36.3151 119.083 35.5083" stroke="#2D9964" stroke-width="3.685" stroke-miterlimit="10" stroke-linecap="round" stroke-linejoin="round"/>
<path d="M126.201 38.7356C125.338 40.0803 124.745 41.5863 123.505 42.6083C123.343 42.7697 123.343 43.0924 123.02 43.0924C121.024 43.0924 120.323 44.5447 119.623 46.0508C119.461 46.3735 119.299 46.6962 119.137 46.9651" stroke="#2D9964" stroke-width="3.685" stroke-miterlimit="10" stroke-linecap="round" stroke-linejoin="round"/>
<path d="M105.819 38.0361C105.765 39.3808 104.794 40.4028 104.471 41.6399C104.309 42.3392 104.255 43.146 103.823 43.7377C104.309 44.8134 105.064 45.4051 106.304 45.2975C107.598 45.2437 108.784 45.7278 109.971 46.2119C110.294 46.3195 110.564 46.3733 110.779 46.3195C111.912 46.0505 112.774 46.5346 113.475 47.2877" stroke="#2D9964" stroke-width="3.685" stroke-miterlimit="10" stroke-linecap="round" stroke-linejoin="round"/>
<path d="M114.069 41.3174C112.02 42.1242 111.426 42.7159 111.804 45.1901C111.858 45.5128 111.75 45.8356 111.696 46.1045" stroke="#2D9964" stroke-width="3.685" stroke-miterlimit="10" stroke-linecap="round" stroke-linejoin="round"/>
<path d="M121.725 42.9847C121.186 42.4468 120.593 42.0703 119.946 41.6937C119.407 41.371 118.868 41.2634 118.436 41.8013C118.221 42.0703 118.005 42.2316 117.735 42.393C116.333 43.3074 115.525 44.6521 115.471 46.3733" stroke="#2D9964" stroke-width="3.685" stroke-miterlimit="10" stroke-linecap="round" stroke-linejoin="round"/>
<path d="M118.544 41.5862C117.412 40.2415 115.848 40.1339 114.284 39.9725C113.637 39.9188 113.044 39.7574 112.505 39.3809C111.696 38.843 110.618 39.1657 109.971 38.6816C107.922 40.5642 107.328 42.8233 107.76 45.4051" stroke="#2D9964" stroke-width="3.685" stroke-miterlimit="10" stroke-linecap="round" stroke-linejoin="round"/>
<path d="M105.98 33.5718C105.279 33.8945 104.686 34.3786 104.093 34.8089C103.554 35.2392 103.554 35.7233 103.5 36.2612C103.446 37.1756 103.823 37.6059 104.794 37.7135C106.034 37.7672 107.274 37.8748 108.461 38.2513C108.892 38.3589 109.27 38.5203 109.647 38.7354" stroke="#2D9964" stroke-width="3.685" stroke-miterlimit="10" stroke-linecap="round" stroke-linejoin="round"/>
<path d="M111.049 34.1636C110.294 35.5083 110.456 37.0681 110.132 38.5204" stroke="#2D9964" stroke-width="3.685" stroke-miterlimit="10" stroke-linecap="round" stroke-linejoin="round"/>
<path d="M122.588 37.3369C122.157 39.0043 120.917 40.1877 119.892 41.4248" stroke="#2D9964" stroke-width="3.685" stroke-miterlimit="10" stroke-linecap="round" stroke-linejoin="round"/>
<path d="M113.853 34.8628C113.152 36.1537 112.72 37.606 112.181 38.9507" stroke="#2D9964" stroke-width="3.685" stroke-miterlimit="10" stroke-linecap="round" stroke-linejoin="round"/>
<path d="M129.167 41.3174C128.304 41.909 128.142 42.9848 127.441 43.684C127.064 44.0068 126.794 44.4371 126.309 44.7598C127.225 45.728 128.304 46.4272 129.436 47.0727" stroke="#2D9964" stroke-width="3.685" stroke-miterlimit="10" stroke-linecap="round" stroke-linejoin="round"/>
<path d="M117.735 35.4545C116.711 34.9704 115.632 34.5939 114.446 34.7552C114.015 34.809 113.637 34.5938 113.26 34.3787C112.882 34.2173 112.559 33.9484 112.074 34.0022C110.995 34.1635 110.294 33.5181 109.593 32.8188" stroke="#2D9964" stroke-width="3.685" stroke-miterlimit="10" stroke-linecap="round" stroke-linejoin="round"/>
<path d="M103.608 37.5522C103.069 38.0901 102.475 38.628 101.936 39.2197C101.235 39.9727 100.858 41.4788 101.559 42.6083C101.721 42.8235 101.721 43.1462 101.828 43.4151" stroke="#2D9964" stroke-width="3.685" stroke-miterlimit="10" stroke-linecap="round" stroke-linejoin="round"/>
<path d="M126.363 44.9749C124.907 44.9749 124.206 45.943 123.559 46.965C123.289 47.3415 123.073 47.7718 122.858 48.1483" stroke="#2D9964" stroke-width="3.685" stroke-miterlimit="10" stroke-linecap="round" stroke-linejoin="round"/>
<path d="M123.505 43.2C124.098 43.8454 125.015 44.1144 125.392 44.975" stroke="#2D9964" stroke-width="3.685" stroke-miterlimit="10" stroke-linecap="round" stroke-linejoin="round"/>
<path d="M129.868 40.8871C131.485 39.381 133.426 38.4128 135.529 37.7136C137.093 37.1757 138.603 36.6378 140.113 36.0461C140.922 35.7234 141.515 35.1317 142.108 34.5401C143.725 32.8726 145.774 31.6355 147.446 29.9681C149.819 27.5476 151.005 24.7507 150.843 21.362C150.789 19.7484 150.304 18.1886 149.387 16.9514C148.632 15.9833 147.5 15.553 146.152 15.7143C145.02 15.8219 144.157 16.6825 142.971 16.4673C142 16.306 140.975 16.6825 140.005 16.7363C138.225 16.8976 136.392 17.1128 134.559 16.5749C133.804 16.3598 133.157 15.9833 132.564 15.553C131.485 14.7999 131.323 13.6704 131.971 12.3257C132.725 10.8196 132.941 9.31356 132.564 7.59235C132.024 5.38704 129.706 3.23553 127.495 2.64386C125.338 2.10598 123.721 2.9128 122.211 4.20371C121.995 4.36507 121.941 4.6878 121.618 4.63401C120.755 4.58023 120.431 5.22568 120.108 5.81734C119.838 6.30144 119.623 6.73174 119.407 7.21583C118.059 10.1204 115.632 11.1961 112.451 10.6583C110.24 10.2817 108.784 8.72189 106.951 7.75371C104.794 6.57038 102.637 5.44083 100.103 5.44083C97.6225 5.44083 96.1127 7.64614 96.3284 9.69008C96.5441 11.5727 97.4068 13.1863 98.5931 14.6386" stroke="#2D9964" stroke-width="3.685" stroke-miterlimit="10" stroke-linecap="round" stroke-linejoin="round"/>
<path d="M131.647 14.6387C130.676 15.5531 129.868 16.575 129.436 17.8122C128.681 19.8023 129.598 22.2228 132.833 22.7606C134.289 22.9758 135.637 22.7068 136.931 22.2228C139.25 21.4159 141.137 19.8023 142.809 18.0273C143.132 17.7046 143.24 17.1129 143.402 16.6288" stroke="#2D9964" stroke-width="3.685" stroke-miterlimit="10" stroke-linecap="round" stroke-linejoin="round"/>
<path d="M121.887 4.79541C122.319 7.53859 122.534 10.228 121.078 12.8098C120.162 14.4234 118.975 15.6068 117.034 15.9833C114.877 16.4136 113.422 15.7681 112.235 13.8856C111.642 12.9174 111.211 11.8954 111.157 10.7121" stroke="#2D9964" stroke-width="3.685" stroke-miterlimit="10" stroke-linecap="round" stroke-linejoin="round"/>
<path d="M121.887 33.7871C122.049 34.1636 122.157 34.5939 122.211 34.7015C124.206 34.7015 126.039 34.7015 127.873 34.7015C128.466 34.7015 129.113 34.7015 129.652 34.325C130.407 33.8409 131.216 34.2174 132.024 34.2174" stroke="#2D9964" stroke-width="3.685" stroke-miterlimit="10" stroke-linecap="round" stroke-linejoin="round"/>
<path d="M98.5392 14.6387C100.103 16.1447 103.554 20.9319 104.417 22.8682C104.74 23.5137 105.01 24.1053 105.657 24.5894C106.681 22.4917 108.461 21.3622 110.564 20.6091C110.779 21.0932 111.319 21.3084 111.373 21.7925" stroke="#2D9964" stroke-width="3.685" stroke-miterlimit="10" stroke-linecap="round" stroke-linejoin="round"/>
<path d="M134.02 32.1734C132.779 32.1734 131.593 32.1734 130.353 32.1734C129.868 32.1734 129.274 32.281 128.951 31.7969C128.466 31.0439 127.873 31.3666 127.279 31.5818C125.5 32.2272 123.667 32.7113 121.941 33.5181C121.132 33.8947 120.108 34.1098 119.137 34.1636" stroke="#2D9964" stroke-width="3.685" stroke-miterlimit="10" stroke-linecap="round" stroke-linejoin="round"/>
<path d="M112.343 25.45C110.833 25.45 109.755 26.5257 108.461 27.1174C107.598 27.4939 106.897 28.3545 105.873 28.4083" stroke="#2D9964" stroke-width="3.685" stroke-miterlimit="10" stroke-linecap="round" stroke-linejoin="round"/>
<path d="M111.858 17.7043C112.343 18.565 112.882 19.3718 112.936 20.3937C112.936 21.1468 112.99 21.8998 111.858 21.7922C111.48 21.7384 111.265 21.8998 111.049 22.1687C109.917 23.1907 108.407 23.4596 107.167 24.2665C106.843 24.4278 106.412 24.374 105.98 24.4278" stroke="#2D9964" stroke-width="3.685" stroke-miterlimit="10" stroke-linecap="round" stroke-linejoin="round"/>
<path d="M108.892 18.4038C107.436 18.6727 106.412 19.8561 105.118 20.394" stroke="#2D9964" stroke-width="3.685" stroke-miterlimit="10" stroke-linecap="round" stroke-linejoin="round"/>
<path d="M105.603 24.6431C105.333 26.0416 105.333 27.4938 105.711 28.8923C105.926 29.6453 106.897 30.8825 107.436 31.4741" stroke="#2D9964" stroke-width="3.685" stroke-miterlimit="10" stroke-linecap="round" stroke-linejoin="round"/>
<path d="M130.245 30.0757C129.814 30.6136 128.897 30.6136 128.573 31.3666" stroke="#2D9964" stroke-width="3.685" stroke-miterlimit="10" stroke-linecap="round" stroke-linejoin="round"/>
<path d="M103.716 43.8994C103.015 44.0069 102.422 43.469 101.721 43.5228C99.5098 43.8456 97.2451 44.1145 94.9804 44.3297C92.9853 44.5448 90.9902 44.9213 89.1029 45.513C84.1421 47.0728 79.9902 50.0312 76.1078 53.4736C73.6274 55.6789 71.4706 58.2069 69.4755 60.8425C66.9951 64.1774 65.1078 67.835 63.4363 71.6001C62.3039 74.0744 61.6029 76.71 60.7941 79.3456C59.9853 82.035 59.3921 84.7781 59.2843 87.5751C59.1765 90.2645 59.2304 93.0077 59.6078 95.6971C60.0392 98.8706 60.7402 101.883 61.9264 104.895C62.3578 105.971 63.2745 106.724 63.4363 107.907C63.5441 108.983 64.1372 109.951 64.9461 110.704C65.2696 110.973 65.3774 111.403 65.5392 111.726C66.7255 114.093 67.9117 116.513 69.8529 118.449C70.5539 119.095 71.3088 119.633 71.9019 120.44C73.3578 122.645 75.4068 124.258 77.4559 125.818C77.8872 126.141 78.3725 126.464 78.8039 126.786" stroke="#2D9964" stroke-width="3.685" stroke-miterlimit="10" stroke-linecap="round" stroke-linejoin="round"/>
<path d="M145.559 102.528C146.422 99.5159 146.799 96.3962 147.176 93.2765C147.446 91.0712 147.554 88.8122 147.5 86.5531C147.446 84.4553 147.446 82.3576 147.123 80.3137C146.529 76.5485 145.289 72.9985 143.294 69.7175C142.701 68.7493 141.892 67.8887 141.299 66.8667C140.005 64.6076 138.172 62.9402 136.122 61.4879C133.804 59.8205 131.593 57.9917 129.922 55.6788C128.897 54.3341 127.819 52.8281 127.765 50.9993" stroke="#2D9964" stroke-width="3.685" stroke-miterlimit="10" stroke-linecap="round" stroke-linejoin="round"/>
</svg>
