<svg width="9" height="15" viewBox="0 0 9 15" fill="none" xmlns="http://www.w3.org/2000/svg">
<path d="M1.34914 15C1.16783 14.9939 0.989585 14.9509 0.825582 14.8736C0.661488 14.7964 0.514948 14.6865 0.394911 14.5507C0.142037 14.298 0 13.9554 0 13.5981C0 13.2409 0.142037 12.8982 0.394911 12.6455L5.79627 7.25344L0.394911 1.86144C0.288108 1.60261 0.264666 1.31701 0.327862 1.04426C0.39104 0.771518 0.537724 0.525191 0.747531 0.339453C0.957357 0.153716 1.21986 0.0377874 1.49875 0.00777171C1.77747 -0.0222439 2.0587 0.0351454 2.30338 0.171941L8.60498 6.46261C8.85794 6.7155 9 7.05807 9 7.4152C9 7.77252 8.85794 8.11509 8.60498 8.3678L2.30338 14.5507C2.18329 14.6865 2.03673 14.7964 1.87271 14.8736C1.70869 14.9509 1.53044 14.9939 1.34914 15Z" fill="#074824"/>
</svg>
