<svg width="23" height="23" viewBox="0 0 23 23" fill="none" xmlns="http://www.w3.org/2000/svg">
<path d="M21.3571 9.03571H13.9643V1.64286C13.9643 0.735692 13.2286 0 12.3214 0H10.6786C9.77141 0 9.03571 0.735692 9.03571 1.64286V9.03571H1.64286C0.735692 9.03571 0 9.77141 0 10.6786V12.3214C0 13.2286 0.735692 13.9643 1.64286 13.9643H9.03571V21.3571C9.03571 22.2643 9.77141 23 10.6786 23H12.3214C13.2286 23 13.9643 22.2643 13.9643 21.3571V13.9643H21.3571C22.2643 13.9643 23 13.2286 23 12.3214V10.6786C23 9.77141 22.2643 9.03571 21.3571 9.03571Z" fill="#2D9964"/>
</svg>
